<?xml version="1.0" standalone="yes"?>
<svg xmlns="http://www.w3.org/2000/svg" width="39" height="58">
<path style="fill:#fbfbfb; stroke:none;" d="M0 0L0 58L39 58L39 0L0 0z"/>
<path style="fill:#191919; stroke:none;" d="M5 6C5.04378 11.219 5.72842 15.6541 8.93904 19.9606C14.3234 27.1829 22.7225 31.4182 27.9452 39C30.0817 42.1015 32.3953 46.0165 31.5309 49.946C31.0225 52.2571 29.1793 54.0288 28 56C42.7583 52.9312 30.1835 35.7792 26 29C32.36 26.8875 28.3327 20.6727 27 16L30 16C28.652 11.3002 25.6847 9.11465 21 8C22.1394 9.01545 22.6116 9.30866 24 10C22.1533 10.2104 20.8566 10.194 19 10C21.1709 14.9024 24.4308 18.4787 25 24C16.6163 23.541 10.8483 17.2287 10 9L15 10C12.6408 6.88696 8.73954 6.50403 5 6z"/>
</svg>
