<?xml version="1.0" standalone="yes"?>
<svg xmlns="http://www.w3.org/2000/svg" width="49" height="56">
<path style="fill:#fdfdfd; stroke:none;" d="M0 0L0 56L49 56L49 0L0 0z"/>
<path style="fill:#131313; stroke:none;" d="M21 25C16.8061 24.9107 13.0632 23.9288 9 23C12.0156 29.3387 17.11 33.0479 24 34C21.6781 43.7525 25.2317 51.8899 36 53C34.2629 50.4464 31.788 47.9488 30.7562 45C28.8787 39.6346 33.0729 34.6745 35 30L31 30C33.4786 28.169 35.4461 26.6544 37 24C29.9518 25.3116 23.9072 20.7904 22 14C28.6803 14.056 34.8546 19.1455 41 17C34.7387 4.29961 10.9986 11.0938 21 25z"/>
</svg>
