<?xml version="1.0" standalone="yes"?>
<svg xmlns="http://www.w3.org/2000/svg" width="53" height="54">
<path style="fill:#f8f8f6; stroke:none;" d="M0 0L0 54L53 54L53 0L0 0z"/>
<path style="fill:#1b1d17; stroke:none;" d="M23 28C20.1352 32.2114 15.9952 36.4704 16.402 41.9992C16.9876 49.9573 25.814 50.6413 30.9599 46.581C38.098 40.9488 38.4941 32.0281 41 24L32 26C33.7147 23.5607 35.5081 21.1046 35.6813 18.0008C36.3137 6.66844 21.1604 8.0896 15.4792 13.5324C12.0721 16.7965 8.87855 23.1556 9.24151 27.9954C9.60935 32.9001 14.0008 34.4019 17.9753 32.162C19.8906 31.0826 21.4107 29.4827 23 28z"/>
<path style="fill:#f8f8f6; stroke:none;" d="M25 23L24 26C29.235 20.4122 25.1067 13.1894 18.152 18.7029C15.6001 20.7261 14.4321 26.0348 19.1042 26.1373C21.4797 26.1895 23.2911 24.3495 25 23M31 26L32 27L31 26M23 27L24 28L23 27M28 36C30.3572 34.8964 31.3761 34.0436 33 32C29.7974 32.1384 28.9594 32.9396 28 36M26 38C26 36.2032 25.9857 36.4785 25 35C24.0155 37.3316 24.0187 39.4567 24 42C29.3548 41.1494 32.4841 38.7957 35 34L26 38z"/>
</svg>
