<?xml version="1.0" standalone="yes"?>
<svg xmlns="http://www.w3.org/2000/svg" width="55" height="38">
<path style="fill:#f8f9f6; stroke:none;" d="M0 0L0 38L55 38L55 0L0 0z"/>
<path style="fill:#2c291c; stroke:none;" d="M7 30C10.8545 31.3221 14.1353 28.7424 18 28.0934C29.4763 26.1659 46.4389 27.1416 48 12C45.3808 12.3946 42.5734 12.781 40.5594 14.7029C38.3799 16.7829 38.0611 20.2396 34.8912 21.3071C29.7996 23.0218 24.4575 20.6971 19 23C21.2651 17.7515 24.809 13.6713 28 9C30.6223 12.2844 31.7708 14.7971 32 19C39.7975 17.2985 37.9415 3.74973 29.9992 5.76157C18.9411 8.56267 16.5664 24.4405 7 30z"/>
</svg>
