<?xml version="1.0" standalone="yes"?>
<svg xmlns="http://www.w3.org/2000/svg" width="87" height="55">
<path style="fill:#f6f6f6; stroke:none;" d="M0 0L0 55L87 55L87 0L0 0z"/>
<path style="fill:#2c2c2c; stroke:none;" d="M65 8C66.4932 13.4813 70.7022 17.6605 74.2492 22C75.8291 23.9329 78.4416 26.3156 78.5386 29C78.6392 31.7854 75.9253 34.0697 74.2809 36C70.7739 40.1166 65.7993 44.3525 66 50C70.596 45.7472 74.6629 40.8897 78.571 36C80.1414 34.0351 82.3418 31.7035 82.2523 29C82.162 26.2725 79.8488 23.9867 78.2454 22C74.4868 17.3432 70.6015 12.7788 67 8L65 8M24 50C22.2271 44.7849 18.2379 41.1507 14.7307 37C13.098 35.0678 10.4926 32.7468 10.4838 30C10.4751 27.2931 13.0064 24.9453 14.5772 23C18.1357 18.5931 22.1712 14.4235 24 9C18.2612 11.7966 14.3683 18.0784 10.429 23C8.86903 24.949 6.60438 27.3206 6.63194 30C6.66039 32.765 9.08696 35.0346 10.7338 37C14.6117 41.6281 18.5179 47.3288 24 50M51 20L51 22C57.2526 22 63.8222 22.6791 70 22C65.2129 18.3733 56.819 20 51 20M20 21L20 23L38 23L38 21L20 21M19 29C23.5977 32.4832 32.6595 31.5786 38 30C33.4023 26.5168 24.3405 27.4214 19 29M51 28L51 30C57.2427 30 63.9857 30.7777 70 29C64.5308 26.705 56.9013 28 51 28M20 35L20 38C25.6059 38 33.3838 39.4973 38 36C32.2427 34.51 25.9158 35 20 35M51 35L51 37L69 37L69 35L51 35z"/>
</svg>
