<?xml version="1.0" standalone="yes"?>
<svg xmlns="http://www.w3.org/2000/svg" width="99" height="73">
<path style="fill:#f1f1f1; stroke:none;" d="M0 0L0 73L99 73L99 0L0 0z"/>
<path style="fill:#101010; stroke:none;" d="M22 17C24.5006 21.2818 26.5137 30.2583 18.0031 29.1188C12.7008 28.4089 9.89493 22.4686 12.7461 18.044C15.7529 13.378 21.1023 12.1893 25.9961 14.4167C40.3286 20.9398 43.7454 39.0296 36.2716 52C33.546 56.7301 28.7702 62.0826 23 62.7323C14.5608 63.6824 6.29338 51.8966 16.044 47.2191C19.5564 45.5342 25.1052 47.6215 25.1343 52.0023C25.1525 54.7471 22.854 56.4052 21 58C27.08 59.4033 30.8405 51.7995 26.6813 47.2284C17.6566 37.3098 0.683863 50.6942 10.7091 61.6597C17.1664 68.7226 29.1848 66.6757 36 61.4715C40.5275 58.0141 44.6587 52.6331 51 53.2569C63.4579 54.4826 70.4453 71.9211 84.9961 64.5432C89.4096 62.3054 93.2856 57.188 92.5123 52.0039C91.5197 45.3486 82.9146 41.3965 77.0193 44.3218C69.5211 48.0424 71.5798 56.485 79 58C75.6488 54.049 72.9525 46.9242 81.0139 46.3372C86.2476 45.9561 89.8216 51.204 88.091 55.9846C86.0331 61.6697 79.1823 63.9061 74.0008 61.2276C60.561 54.2802 57.2635 33.9639 65.4684 22.0147C68.2701 17.9343 72.7072 13.2534 78 13.0015C86.4175 12.601 93.0051 24.902 82.9846 28.2137C75.6402 30.641 73.1846 22.2981 78 18C71.697 16.7194 70.113 24.8861 74.2292 28.6821C83.8769 37.5793 98.2964 23.2308 88.6057 13.3904C82.1841 6.86967 71.7081 8.52329 65 13.5293C60.2458 17.0773 55.5837 22.7543 49 22.1667C43.7291 21.6962 39.9595 17.3691 36 14.3758C30.3494 10.104 22.8197 7.95577 16.0008 10.5633C2.11467 15.8732 7.47199 35.7367 21.9961 31.1952C30.5888 28.5084 29.9085 19.7551 22 17z"/>
<path style="fill:#f1f1f1; stroke:none;" d="M44 27C46.2686 35.3146 47.1854 39.7283 44 48C48.567 47.4258 52.433 47.4258 57 48C54.3204 39.762 54.7932 35.2548 57 27C52.4306 27.8483 48.5491 28.0825 44 27z"/>
</svg>
