<?xml version="1.0" standalone="yes"?>
<svg xmlns="http://www.w3.org/2000/svg" width="54" height="38">
<path style="fill:#fcfcfc; stroke:none;" d="M0 0L0 38L54 38L54 0L0 0z"/>
<path style="fill:#242623; stroke:none;" d="M42 21L40.8056 23L40.483 23.5062L40 25L41.4722 23.9136L41.8403 23.483L42.6304 22.679L43.9159 20.9429L45.081 19.0201L45.9992 17.1605L46.571 15.6713L47 14L45.3287 14.9684L44.841 15.2909C43.6035 16.0328 42.3672 16.8015 40.9954 17.2762L39 17.7724L37 17.9599L34.0015 18.0887C33.0093 18.1624 32.0289 18.2797 31.0448 18.4252L29.159 18.7245L28.6713 18.8171L27 19L26.9421 17.3295L26.7215 15.8549L26.4861 14.9992L26.142 14.0841L25.1065 12.4321L23.6559 11.1829L21.9059 10.4738L20.9599 10.3218L19.9853 10.294L18.9961 10.3735L17 10.8079C13.9602 11.72 11.2989 13.6662 9.2284 16.044C7.97435 17.4841 6.88923 19.1151 6.45293 20.9992L6.25694 22.9846L6.36188 23.956L7.03164 25.7716L8.3179 27.2577L10.0586 28.2577L11.0193 28.5656L12.0046 28.7677L13.0008 28.8765L15 28.8904L17 28.6551L18 28.4275L19 28.1073L21 27.1613C22.051 26.5808 22.9967 25.8343 24 25.1806L25 24.534L27 23.5093L29 22.8627L31 22.4437L33 22.1667L35.9954 21.9252L37.9552 21.7145C39.3106 21.5109 40.6525 21.2502 42 21z"/>
<path style="fill:#fcfcfc; stroke:none;" d="M11 20L12.6713 19.5895L13.1582 19.4228L14.1559 19.1134L15.966 18.4452L16.8565 18.0586L18.3966 17.1011L19.3958 15.858L19.6852 15.0154L20 13L17.8565 13.2261L16.8827 13.4344L15.189 14.1775L13.6505 15.409L12.4537 16.9483L11.6767 18.3449L11 20M13 22L13 26L14.6705 25.9799L16.1412 25.8534L17.8758 25.4213L19.3912 24.5563L20.3457 23.5116L21 22L13 22z"/>
</svg>
