<?xml version="1.0" standalone="yes"?>
<svg xmlns="http://www.w3.org/2000/svg" width="83" height="59">
<path style="fill:#f6f6f6; stroke:none;" d="M0 0L0 59L83 59L83 0L0 0z"/>
<path style="fill:#4b4b4b; stroke:none;" d="M40 9L40 14L42 14C41.6974 11.7057 41.4215 10.7885 40 9M26 11C26.648 13.3936 27.0324 14.5362 29 16C28.352 13.6064 27.9676 12.4638 26 11M54 11L53 16C54.9676 14.5362 55.352 13.3936 56 11L54 11M40 16C40.0941 18.2049 40.3562 19.8941 41 22C41.8743 19.9479 41.9528 18.2528 42 16L40 16M29 17C28.991 20.0242 29.4612 21.314 32 23C31.1421 20.8399 30.2925 18.9225 29 17M15 18C15.9357 19.9486 16.3924 20.5502 18 22C17.2235 19.8683 16.8698 19.2292 15 18M52 18L50 23C52.1314 21.5155 52.7101 20.5307 52 18M65 18L63 22C65.2489 20.8464 65.8464 20.2489 67 18L65 18M19 23C20.1631 25.2167 21.0864 26.3942 23 28C22.0609 25.3626 21.4203 24.3818 19 23M61 23L58 28C60.6866 26.6759 61.6759 25.6866 63 23L61 23M40 24L40 29L42 29L42 24L40 24M7 25C9.84142 28.5235 13.2862 31.4144 17 34C14.9245 29.664 11.6727 26.33 7 25M31 25C31.547 26.875 32.11 28.2553 33 30C33.7101 27.4693 33.1314 26.4845 31 25M49 25L48 31C38.8726 29.8717 26.0298 31.2852 23.064 42.0008C21.6693 47.04 26.7656 55.0584 32.6813 52.3812C37.7362 50.0935 32.6779 46.163 29 47C30.8092 47.5743 31.0688 47.4653 33 47C32.2936 53.0726 25.9523 49.3808 25.1721 44.9961C24.4315 40.8341 28.8603 36.9377 32.0039 35.0054C40.1399 30.0043 50.0207 32.2692 55.5509 40.0147C59.5297 45.5871 53.285 53.5103 48 48C49.7968 48 49.5215 47.9857 51 47C45.8014 45.8322 46.9225 54.0153 52.9892 52.5471C66.3419 49.3156 55.6415 34.5415 48 32C49.2523 29.3886 49.9646 27.7506 49 25M64 34C68.2186 32.0442 71.7983 29.124 74 25C69.8452 27.0104 66.7022 30.2853 64 34M24 29C25.1631 31.2167 26.0864 32.3942 28 34C27.0609 31.3626 26.4203 30.3818 24 29M56 29L54 34C56.0436 32.3761 56.8964 31.3572 58 29L56 29M18 35C19.6239 37.0436 20.6428 37.8964 23 39C21.6274 36.4527 20.7817 35.8125 18 35M59 39C61.3572 37.8964 62.3761 37.0436 64 35C61.3626 35.9391 60.3819 36.5797 59 39z"/>
</svg>
