<?xml version="1.0" standalone="yes"?>
<svg xmlns="http://www.w3.org/2000/svg" width="74" height="71">
<path style="fill:#f7f7f7; stroke:none;" d="M0 0L0 71L74 71L74 0L0 0z"/>
<path style="fill:#292929; stroke:none;" d="M36 5L34.5833 6.5L34.1667 7.05556L32.6389 9L31.25 10.9444L30.6944 11.9444L30.3611 12.5L30 14L31.5 13.8889L33 13.3333L33.5 13.1389L35 12L35 17L33.5 17.25L32.9444 17.4167L31.9444 17.6944L30 18.4167L28 19.4167L26 20.6944L25.0278 21.4167L24.0833 22.2222L22.4722 24.0278L21.8611 25L20.7778 27L20.25 28L19.4722 30L19.25 30.9444L19.0278 32.5L19 34L18 35L14 35L14.6667 33.5L14.9722 32.9444L15.3889 32L15.8889 30.5L16 29L14.5 29.3611L13.9444 29.7222L12.9444 30.3056L11 31.8056L9.11111 33.3889L8.33333 34.1667L7.36111 35.5278L7 37L8.5 38.0556L10.0556 38.9722L12 39.9167L12.9444 40.2778L14.5 40.75L16 41L15.6944 39.5556L15.3333 39L14 37L19 37L19.0278 38.5L19.2222 40.0556L19.4167 41L20.0833 43L21.0833 45L22.4167 47L24.0833 48.9167L26 50.5L28 51.5833L29 51.9722L31 52.5833L31.9444 52.7778L33.5 52.9722L35 53L35 59L33.5 57.8611L33 57.6667L31.5 57.1111L30 57L30.3611 58.5L30.7222 59.0556L31.3056 60.0556L32.8056 62L34.3889 63.8889L35.1667 64.6667L36.5278 65.6389L38 66L38.5 64.5L38.8333 63.9444L39.25 62.9444L39.7778 62L40.75 60.0556L41.1667 59.0556L41.5 58.5L42 57L40 57.25L39.4444 57.2778L38 58L38 53L39.5 52.9722L41.0556 52.75L42 52.5278L44 51.75L45 51.2222L47 50.1389L48 49.5278L49.9167 47.9167L51.5278 46L52.1389 45L53.1389 43L53.5278 42L53.75 41L53.9167 40.0556L54 38.5L54 37L61 37L59.6667 39L59.3056 39.5556L59 41L60.5 40.7222L62.0556 40.1389L63 39.7222L64 39.1667L65.9444 38.0556L66.5 37.6944L68 37L68 35L66.5 34.25L65.9444 33.7778L64.9444 33.1111L64 32.3611L62.0556 30.8889L61.0556 30.2222L60.5 29.75L59 29L59.0556 31L59.25 32L59.2778 32.5L60 34L54 34L53.9722 32.5L53.75 30.9444L53.5278 30L52.75 28L52.2222 27L51.75 26L50.5278 24L48.9167 22.0833L47 20.4722L45 19.25L44 18.7778L43 18.25L41 17.4722L40.0556 17.25L38.5 17.0278L37 17L37 12L38.25 12.6667L38.6667 12.9722L40.1667 13.6944L40.5833 13.8889L42 14L41.6667 12.5L41.3611 11.9444L40.9167 10.9444L40.3611 10L39.2778 8.05556L38.8333 7.05556L38.5 6.5L38 5L36 5z"/>
<path style="fill:#f7f7f7; stroke:none;" d="M36 8L37 9L36 8M34 19L32.5 19.9722L31.9444 20.1667L30.9444 20.6667L30 21.0833L28 22.3056L27 23.1111L25.0833 25L23.4722 27L22.2778 29L21.4722 30.9444L21.0833 32.5L21 34L22.5 34.7222L23.0556 34.75L24.0556 34.9444L25 34.9722L26 35L28 35L30 35L35 35L35 26L35 24L35 23L34.9722 22.0278L34.9444 21.1111L34.75 20.3056L34.7222 19.7778L34 19M38 20L38 35L52 35L51.9722 33.5L51.75 31.9444L51.5278 31L50.75 29L50.2222 28L49.1389 26.0278L48.5278 25.0833L46.9167 23.4167L45.9722 22.6944L44 21.4167L42 20.5L41.0556 20.25L39.5 20.0278L38 20M9.33333 35.6667L9.33333 36L9.66667 36.3333L9.66667 36L9.33333 35.6667M36.3333 35.6667L36.3333 36L36.6667 36.3333L36.6667 36L36.3333 35.6667M65.3333 35.6667L65.3333 36.3333L65.6667 36.3333L65.6667 35.6667L65.3333 35.6667M21 37L21.0833 38.5L21.4722 40.0556L22.25 42L22.7778 43L23.8611 44.9722L24.4722 45.9167L26.0833 47.5833L27.0278 48.3056L29 49.5833L31 50.5L31.9444 50.75L33.5 50.9722L35 51L35 37L21 37M38 37L38 50L39.5 50L41.0556 49.9167L42 49.75L43 49.5L44 49.0556L45.9722 47.8333L47.75 46.3611L48.5278 45.6111L49.75 43.9167L50.75 42L51.5278 40.0556L51.9167 38.5L52 37L38 37M36 62L37 63L36 62z"/>
</svg>
