<?xml version="1.0" standalone="yes"?>
<svg xmlns="http://www.w3.org/2000/svg" width="56" height="37">
<path style="fill:#fafafa; stroke:none;" d="M0 0L0 37L56 37L56 0L0 0z"/>
<path style="fill:#3b3b35; stroke:none;" d="M30 5L29.2778 6.5L29.25 7.05556L29.0556 8L29.0278 8.94444L29 11L27.5556 10.2778L27 9.75L25 8L23 9L22 9L22 10L23 12L28 12L27.4167 14.0556L27.0833 15.9444L27 18L26 19L22.9444 19L22 19L21 19L19 18.9167L17 18.6111L16 18.3611L15 18.1111L13 17.3333L11.0556 16.2222L10.0556 15.6944L9.5 15.3611L8 15L8.11111 16.4167L8.33333 16.8056L8.66667 17.5556L9.61111 18.4722L11 19L10.75 20.5L10.3889 22L10.2222 22.9444L10.0833 23.5L10 25L10.9722 24.2222L11.1389 23.6944L11.5556 22.9444L11.9167 21.5L12 20L26 20L25.7222 21.5L25.1667 23.0556L24.8333 24L24.4444 25L23.8333 27L23.5556 28L23.1667 29L22.8333 29.9444L22.2778 31.5L22 33L23.2222 32.2222L23.5833 31.6944L24.1944 30.8889L25.25 29.0278L26.4167 27.3056L26.7778 26.7778L28 26L28 30L30 30L31 29L31 26L29 24.8333L28.4444 24.4722L27 24L28.1667 22L28.5278 21.4444L29 20L42 20L42.25 22L42.2778 22.5556L43 24L47 24L46.6389 22.7778L45.7222 21.8611L45.3889 21.5278L44 21L45.5 20.2778L46 20.25L47 20.0556L49 20L48.2222 19.2778L47.75 19.25L46.9444 19.0556L45 19L45.4167 17.5556L45.75 16.4444L46 15L44.5 15.75L43.9444 16.1944L42 17.3056L41 17.6667L39 17.9722L38 18L36 18L34 18L29 18L29.8056 16.5L29.9722 15.9444L30.3333 15L30.75 13.5L31 12L33 11.75L33.5556 11.7222L35 11L34.2778 10.3333L33.75 10.5L32 11L32 5L30 5M21.6667 25.3333L21.6667 25.6667L22.3333 25.6667L22 25.3333L21.6667 25.3333z"/>
</svg>
