<?xml version="1.0" standalone="yes"?>
<svg xmlns="http://www.w3.org/2000/svg" width="102" height="89">
<path style="fill:#fdfdfd; stroke:none;" d="M0 0L0 89L102 89L102 0L0 0z"/>
<path style="fill:#131313; stroke:none;" d="M54 6C49.9947 15.6204 43.4133 23.6709 39 33C35.3748 29.9342 32.7087 29.0556 28 29L28 31C38.6808 34.0725 31.5841 43.7779 29.76 51C28.5233 55.8967 29.062 60.4072 31 65C32.5311 62.5675 33.0986 59.5143 34.8434 57.2284C37.1163 54.2504 40.7046 53.6974 43.4715 56.3218C48.2474 60.8517 49.8352 66.7341 56 70C52.826 74.4934 47.7897 77.3853 45 82C50.4456 80.9019 54.5699 77.2508 58 73C62.3967 75.9928 67.6598 78.2554 72.8117 75.4275C78.1982 72.4708 79.8815 64.5018 73 63C74.5431 64.2667 75.0478 64.4892 77 65C73.3949 71.233 68.2365 71.2688 62 69C66.6532 63.6568 74.4962 55.8309 73.6782 48.0193C73.1571 43.0426 67.8529 42.095 64.213 44.7423C61.2331 46.9095 59.9743 50.6261 59 54C61.6626 52.2032 64.0804 50.3332 67 49C67.8181 54.0455 66.8465 57.788 63.7793 61.9761C62.3831 63.8825 60.6019 66.154 57.9753 65.0787C53.2164 63.1304 49.764 56.0633 47 52C59.5519 49.0186 79.6457 32.8798 65 20C62.7561 24.5452 59.9287 25.6453 55 25C53.0197 26.8842 51.6904 27.4693 49 28C54.3054 21.0968 58.5471 14.4927 54 6z"/>
<path style="fill:#fdfdfd; stroke:none;" d="M48.044 31.0316C40.2985 35.0564 45.3054 45.7157 52.956 41.6775C60.7325 37.5728 55.7399 27.0327 48.044 31.0316M60 30C59.6764 40.8997 51.8356 45.5836 42 42C45.6863 50.108 54.6639 47.5803 59.2616 40.9059C61.3936 37.8108 61.7108 33.6344 62 30L60 30M38 45C37.11 46.7447 36.547 48.125 36 50L40 49C39.436 47.248 39.0811 46.458 38 45z"/>
</svg>
