<?xml version="1.0" standalone="yes"?>
<svg xmlns="http://www.w3.org/2000/svg" width="175" height="150">
<path style="fill:#ffffff; stroke:none;" d="M0 0L0 150L175 150L175 0L0 0z"/>
<path style="fill:#050404; stroke:none;" d="M136 44C137.632 43.6381 140.146 42.4736 141.773 43.287C145.372 45.0868 143.463 50.4825 140.852 52.1674C137.116 54.5787 130.704 52.0326 127 50.5247C116.18 46.1201 106.767 39.738 95 37.6157C86.8732 36.15 74.7112 34.3142 67 38.179C62.847 40.2605 60.1103 44.4326 56.8302 47.5756C51.4529 52.7282 45.6194 57.4012 40 62.2816C32.2593 69.0044 21.7816 75.7837 17 85L12 81C12.6434 85.9188 13.0653 89.0808 12 94C14.4344 93.3486 15.2827 92.8398 17 91C21.9473 95.0955 27.43 97.3845 33 100.436C40.399 104.489 47.8776 108.839 56 111.279C74.7852 116.921 98.4118 115.429 116 106.63C126.011 101.621 132.376 93.8306 140.015 86C147.016 78.8226 160.891 68.6062 161.894 58C162.632 50.1957 155.89 39.65 148.961 36.0278C142.541 32.6724 134.809 36.7026 136 44z"/>
<path style="fill:#ffffff; stroke:none;" d="M86 84C83.5844 83.9432 81.3004 83.8667 78.9985 83.0301C68.2887 79.1378 67.6461 69.1397 77.0154 62.9699C82.7636 59.1846 89.8474 59.4854 96 62.2137C99.2445 63.6525 102.128 65.9676 103.991 69.0147C105.871 72.091 106.02 75.4948 105.995 79C105.963 83.4853 104.881 86.9696 103 91C111.242 85.3646 121.203 78.1618 127 70C114.075 61.4759 96.6975 55.2495 81 57.5802C69.458 59.294 61.2866 74.8808 66.0093 85.9599C72.2521 100.605 92.4165 89.2505 93.3426 77.0046C93.702 72.252 87.0443 68.9188 84.1829 73.3179C81.9332 76.7764 84.4231 80.8621 86 84M55 62C44.7826 70.7085 29.9185 75.9982 22 87C33.9273 93.9603 46.8089 96.5858 60 100C55.6137 92.0024 51.345 84.4546 52.0934 75C52.4477 70.5233 55.1412 66.3963 55 62z"/>
</svg>
