<?xml version="1.0" standalone="yes"?>
<svg xmlns="http://www.w3.org/2000/svg" width="80" height="90">
<path style="fill:#fbfbfb; stroke:none;" d="M0 0L0 90L80 90L80 0L0 0z"/>
<path style="fill:#0e0e10; stroke:none;" d="M27 16C29.9443 17.0564 32.8934 16.2436 36 16C32.0325 29.8786 23.0717 35.8234 12 44C18.8118 46.4367 27.2375 40.1605 33 37C32.887 42.4771 33.6889 54.2338 30.142 58.5664C28.0997 61.061 24.8547 60.4585 22.3295 62.0224C20.1112 63.3962 19.0801 65.7568 18 68C21.7857 68.0025 25.306 68.1205 29 69C23.7417 71.5804 16.8805 70.3475 11 72C14.0984 77.619 21.3547 76 27 76C25.8262 80.401 23.6706 82.4163 20 85C26.058 89.5183 39.7797 83.0023 43 77C40.1503 78.379 38.1636 79.1526 35 79C39.0427 71.1578 44.5853 75.4911 52 74.9066C58.9615 74.3578 66.0308 71.4708 72 68C66.2159 65.5783 59.2619 68.4902 53 67C56.0694 64.7822 62.806 57.7713 56.5664 54.6034C52.5967 52.588 46.8123 54.6106 43 56C44.8816 57.6054 51.9433 62.5923 45.8981 64.2083C43.4004 64.876 40.6972 63.3194 40.0278 60.8665C38.9471 56.9063 40.6304 51.9933 40.9105 48C41.0889 45.4563 40.6664 42.5395 41.7423 40.1474C43.4633 36.3209 48.7051 36.47 51.956 34.5826C54.5284 33.089 56.2705 30.9735 56.767 27.9969C57.8006 21.8002 53.3078 19.6767 48 21C49.147 23.042 50.9924 25.4691 50.6898 27.9576C50.3082 31.0957 46.2383 33.5556 43.6042 31.2137C41.6177 29.4476 42.204 26.2826 42.6196 24C43.894 17.0008 49.1835 12.5385 51 6C42.9167 8.32775 34.4948 12.1699 27 16z"/>
</svg>
