<?xml version="1.0" standalone="yes"?>
<svg xmlns="http://www.w3.org/2000/svg" width="64" height="81">
<path style="fill:#f5f5f5; stroke:none;" d="M0 0L0 81L64 81L64 0L0 0z"/>
<path style="fill:#3a3a3a; stroke:none;" d="M32 4L32 13L32.7222 12.2222L32.75 11.6944L32.9444 10.8889L32.9722 9.97222L33 8L32.9444 6.11111L32.75 5.30556L32.7222 4.77778L32 4M26 9L27 10L26 9M27 11L27.2778 12.5L27.4722 13.0556L28.1667 15L28.5278 16L28.9444 18L29.2222 20L29.3889 21L29.6111 22L29.9167 24L29.9722 25L30 26L30 28L30 30L29.9722 31L29.9167 32L29.6111 34L29.3889 35L29.0833 37L29.0278 38L29 40L29 40.9444L29 44L30.2222 43.6389L31.1111 42.6667L31.75 40.9722L31.9167 40L32 38L32 37L32 35L32 32L32 30L31.9722 28L31.9167 27L31.6111 25L31.3889 24L31.0556 22L30.9444 21L30.6111 19L30.1389 17L29.8333 16L29.5556 15L28.7778 13.1111L28.2222 12.3056L28 11.7778L27 11M23 15L23 17L25 17L25 16L23 15M36 15L36 17L38 17L38 16L36 15M43 18L41.5278 19.25L40.1667 20.4444L39.3889 21.2222L37.8056 23.0278L36.2222 25L35.4722 26L34.2778 28L33.8611 29L33.4722 30L33.25 31L33.0833 31.9444L33 33.5L33 35L34.1389 34.2222L34.3611 33.6944L34.8056 32.8889L35.3889 31L36.0833 29L36.5556 28L37.0833 27L38.4167 25L40.0833 23L41 22L42.6111 20.1111L43.0278 19.3056L43.3611 18.7778L43 18M15 23L15.7778 23.8056L16.3056 24L17.1111 24.4167L18.9722 25.2778L20.7778 26.4722L22.3611 28.0833L23.1111 29.0278L23.7778 30L24.3889 31L24.8889 32L25.5833 34L25.7778 34.9444L25.9722 36.5L26 38L27.1389 37.2222L27.7222 35.8889L27.8611 34L27.6944 33L26.9167 31L26.3611 30L25.1667 28.0833L24.5278 27.2222L22.9167 25.6944L21 24.4167L19 23.5L18.0556 23.25L16.5 23.0278L15 23M43 26L42 28L44 28L44 26L43 26M18 28L17 30L19 30L19 28L18 28M53 28L51.5 29L50.9444 29.25L49 30.3889L47 31.6667L46 32.3333L45 33L43 34.4167L42 35.2222L40 37.0278L39 38L38 39L36.0833 41L34.3889 43L33.6389 44L32.8611 45L32.1944 45.9444L31.4444 46.9444L30 49L29.4722 47.5L28.5 45.9444L26.9167 44L25.9722 43L24 41L22 39.0833L21 38.2222L20 37.4167L19 36.6944L17 35.3889L15 34.25L14 33.7778L13 33.25L11.0556 32.4722L9.5 32.0833L8 32L8.77778 33L9.30556 33.25L10.1111 33.8611L11.0278 34.3889L13 35.6111L15 36.8333L16 37.4722L18 39.0833L19.9722 41L20.9167 42L22.6111 44L23.3611 45L24.8333 47L25.5556 48L26.75 50L27.2222 51L28.1389 53L28.5556 54L28.8333 55L29.2778 57L29.3889 59L29.1111 61L28.6389 63L28.3889 64L28.0833 65.9444L28 67.5L28 69L29.1944 68.6944L29.5833 68.3333L31 67L31.5556 69.0556L31.6944 70.9444L31.4167 72.5L31 74L32.3889 73.6389L33.4167 72.6667L33.8889 71.8889L34.5833 70L34.9167 68L34.9722 67L35 66L34.9167 64L34.6111 62L34.3889 61L34 59L33.8056 58L33.6389 57L33.4444 55L33.5 54L34 52L34.6111 50L35.1667 48L35.4722 47L36.4722 45L37.8611 43L38.6389 42L39.3889 41L41.0556 39.0833L41.9444 38.2222L43.6111 36.6944L44.3889 36L46.0833 34.6111L47.0278 33.8611L49 32.4444L50 31.8611L51.8889 30.75L53.2222 29.6389L53.4167 29.0556L53.6111 28.6944L53 28M47 37L46 39L48 39L48 37L47 37M14 39L14 41L16 41L16 39L14 39M38 59L38.9722 58.2222L39.1389 57.6944L39.5833 56.8889L39.8333 55.9722L40.4444 54L40.8611 53L41.2778 52L41.8611 51L42.4722 50L44.0833 48L46 46L48 44.0833L49.9444 42.5L50.9444 41.9167L51.5 41.5278L53 41L52.2222 40.3611L51.6944 40.5L50.8889 40.5278L49 41.1944L48 41.6389L46 42.6389L45 43.3056L44.0278 44.1111L43.0833 45.0278L41.4722 47L40.8611 48L39.8333 50L39.3889 51L38.6944 53L38.4167 54L38.2222 55L38.0278 56.9444L38 57.5L38 59M11 44L11.7778 44.8056L12.3056 45L14.0278 45.9167L15 46.5L17 48.0833L17.9722 49.0278L18.9167 50L20.5278 52L21.7222 54L22.1667 55L22.6111 56L23.3056 57.9444L23.75 59.5L24 61L24.7222 60.2222L24.75 59.6944L24.9167 58.8889L24.7778 57L24.5833 56L23.9722 54L23.5833 53L22.5 51L20.9167 49.0278L19.9722 48.0833L18 46.4722L16 45.2778L14.0556 44.4722L12.5 44.0833L11 44z"/>
<path style="fill:#f5f5f5; stroke:none;" d="M31 51L31 52L33 53L32 51L31 51z"/>
<path style="fill:#3a3a3a; stroke:none;" d="M24 63L23 64L24 66L26 65L25 63L24 63M39 63L38 65L40 65L40 63L39 63z"/>
</svg>
