<?xml version="1.0" standalone="yes"?>
<svg xmlns="http://www.w3.org/2000/svg" width="100" height="100">
<path style="fill:#fbfbfb; stroke:none;" d="M0 0L0 100L100 100L100 0L0 0z"/>
<path style="fill:#151516; stroke:none;" d="M35 43C36.6037 35.0747 42.1934 34.64 49 33C46.1731 39.7899 43.4064 50.0575 38 55C38.5275 51.6569 40.0422 49.7163 42 47C36.8608 47.4056 31.765 47.9804 27 50L27 52C30.9991 55.1112 36.8576 59.902 38.2276 65C39.0331 67.9973 38.0257 71.891 38 75C30.9563 72.268 24.6424 70.0633 17 70C18.6265 65.2329 25.3237 59.4058 25 68C28.7626 68.0104 32.2995 68.313 36 69C34.7825 58.0688 23.4948 55.6607 15.0039 60.9946C8.15345 65.2979 5.76833 72.4472 8 80C10.4004 77.794 12.6879 74.8065 16.0008 74.0278C21.0579 72.839 27.1946 75.3056 32 76.6404C45.1059 80.281 57.2504 87.3552 71 88.8264C76.9535 89.4634 90.0177 88.1023 83.4236 79.3009C82.7527 78.4055 81.7978 77.6361 80.9306 76.9421C79.3827 75.7034 77.757 74.8776 76 74C76.5751 75.7772 78.0967 78.5325 77.419 80.4329C76.5892 82.7598 73.0987 83.3758 71 83.6952C65.5768 84.5205 52.4649 82.7422 48.6929 78.2971C46.79 76.0546 47.9461 71.7112 48 69C54.846 71.6477 59.6529 77.5314 66 81C63.9016 72.2712 56.8117 65.9878 49 62C49.5618 60.1994 49.8241 58.8782 50 57C54.5223 63.5002 64.5975 69.2795 70 60C65.0107 62.1103 61.6369 62.3657 58 58C61.7967 56.4059 64.9551 53.9585 69 53L66 56C69.2745 56.6033 77.3306 54.3494 74.2485 49.3935C70.3749 43.1652 58.8592 45.5516 56 51L54 51C53.9066 48.5409 53.9988 46.3773 54.7384 43.9985C55.7103 40.8724 57.2463 36.7774 60.213 35.0278C63.941 32.8292 69.0139 34.6391 73 34.9105C78.6875 35.2978 83.9036 34.5578 89 32C86.0815 30.7753 83.0882 31.2362 80 30.6211C74.4273 29.5113 69.8186 27.124 64 27C68.0495 20.5248 72.4925 14.8546 76 8C66.4675 11.4952 62.0123 20.2683 53.7145 24.9722C50.2802 26.9191 45.7493 25.6397 42 26.213C32.922 27.6011 23.4293 37.4699 35 43z"/>
</svg>
