<?xml version="1.0" standalone="yes"?>
<svg xmlns="http://www.w3.org/2000/svg" width="83" height="49">
<path style="fill:#f9f9f9; stroke:none;" d="M0 0L0 49L83 49L83 0L0 0z"/>
<path style="fill:#353535; stroke:none;" d="M9 35L10.1605 34.3457L10.4352 34.0046L11.0502 33.3897L12.1042 31.8511L12.6698 30.9429L13.9151 29.0332L14.6127 28.1127L15.3796 27.2816L16.2099 26.5965L18.0432 25.8858C19.1156 25.7758 20.089 26.1969 21.0008 26.7052L22 27.3596L23 28.1034L25 29.6466L27 30.9985L28 31.5586L30 32.4367C30.991 32.7789 31.981 33.076 33 33.3233C34.3175 33.643 35.6592 33.8688 37 34.0648C37.9938 34.2101 38.9956 34.3541 40 34.402L42 34.4051C43.0038 34.3371 44.0011 34.2342 45 34.115C46.3355 33.9556 47.6909 33.8055 49 33.4861C51.0484 32.9863 53.0781 32.3583 55 31.4815C56.031 31.0111 57.0401 30.4856 58 29.8819L62.8395 26.6466L64.3287 25.7593L66 25L66.5409 26.6705L66.7886 27.1543L67.233 28.1412L68.2631 29.8758L69.4537 31.3912L70.2099 32.0046L70.554 32.3457L72 33L71.4591 31.3287L71.2114 30.841L70.7662 29.8395L69.7269 27.9753C69.1077 26.9651 68.4706 25.9702 67.7901 25C65.5357 21.7854 62.938 18.7906 59.9961 16.1852L58 14.5293L57 13.7894L55 12.483L54 11.9198L53 11.4174L51 10.6489L49 10.2137L48 10.1049L46 10.0154L45 10.0039L43 10.0039C41.327 10.0216 39.6547 10.0493 38 10.3256C36.6381 10.553 35.3107 10.9313 34 11.3596C32.6443 11.8026 31.3104 12.3099 30 12.8727C28.2952 13.6048 26.6124 14.4187 25 15.338C23.2574 16.3314 21.5858 17.4469 20.0039 18.6806L18.0394 20.3009L17.0903 21.1736L15.3009 23.0394C14.4568 23.9848 13.6894 24.9888 12.9282 26.0008L11.5633 27.9985L10.4421 29.9753L9.65278 31.8395L9.22917 33.3287L9 35z"/>
<path style="fill:#f9f9f9; stroke:none;" d="M44 11L44.5556 12.6713L45.3086 14.1605L46.4676 16.0239L47.1265 17.0008C47.7422 17.9587 48.4215 18.8834 48.9228 19.9105C49.3331 20.751 49.6725 21.6218 49.6458 22.5756L49.2292 24.2855L48.2608 26.0849L47.679 27.0147L46.554 28.8434L46.0193 29.8418L45.7323 30.3287L45 32L46.6713 31.8981L47.159 31.8171L48.1605 31.6705L50.0247 31.2114C51.034 30.9156 52.0405 30.5508 53 30.1196L54 29.6728L55.9985 28.6528L57.9753 27.4769C59.6996 26.3949 61.3413 25.1777 63 24L62.3457 22.3287L62.0046 21.841L61.3897 20.8403C60.3617 19.4989 59.2151 18.2568 57.9807 17.1034L55.9992 15.3943L55 14.6528L54 14.0085L52 12.9946C50.732 12.4489 49.3856 12.1251 48.0448 11.8187C46.7028 11.512 45.3508 11.2629 44 11M41 33L40.4444 31.3287L39.6906 29.8441L38.5208 28.034L37.8495 27.1443L36.4853 25.6103L35.7137 24.9954L35.3441 24.6543L34 24L34.8997 22.3287L35.8565 20.8395C37.1808 18.91 38.6036 17.0525 39.9799 15.1605L40.6543 14.159L41.0123 13.6713L42 12L39.841 12.0926L38.8395 12.1844L36.9753 12.5177C35.6293 12.8462 34.3057 13.235 33 13.6998L31 14.4645L29 15.3735L27.0008 16.4398L25.0201 17.6196L23.1674 18.9043L22.3765 19.6088L21.7515 20.375L21.2068 22.0648L21.3457 22.9529L22.3765 24.7029L23.1674 25.5332L24.0633 26.3194L26.0046 27.7793L28 29.0694L29 29.6474L31 30.6335L33 31.3657C34.5772 31.8412 36.2217 32.0001 37.8395 32.2739L39.3287 32.5671L41 33M42 14C40.8308 15.6287 39.6647 17.2581 38.4645 18.8642C37.667 19.9313 36.8279 20.9554 36 22L36.9846 23.6713L37.3341 24.159L37.9915 25.1597L39.2685 27.0062L40.5262 28.8634L41.0656 29.679L41.6775 30.483L41.9591 30.9136L43 32L45.1196 28.8395L46.3063 26.9753L47.3889 24.9985L47.7809 24L48.0201 23L48.071 22C48.0157 20.5603 47.3295 19.2666 46.635 18.0448L45.4498 16.159L44 14L42 14z"/>
</svg>
