<?xml version="1.0" standalone="yes"?>
<svg xmlns="http://www.w3.org/2000/svg" width="65" height="59">
<path style="fill:#f7f7f7; stroke:none;" d="M0 0L0 59L65 59L65 0L0 0z"/>
<path style="fill:#313134; stroke:none;" d="M23 5C26.5512 15.5871 30.1477 24.0868 24.3156 34.9606C22.1598 38.98 16.1536 44.6491 11.2292 41.8056C6.66939 39.1726 9.0679 33.7092 14 36C15.1268 30.0818 9.26469 28.2946 5.74306 33.1481C-0.0295038 41.1039 9.89015 45.5196 14.9606 48.8735C17.4512 50.5208 19.3514 52.6116 22 54C22.82 50.4672 23.7532 46.8837 26.2778 44.1335C30.9675 39.0246 43.4319 36.2923 48.3812 42.5332C50.6602 45.407 48.4368 51.5402 44.1914 50.4043C40.0973 49.309 44.3968 46.5018 46 46C42.5438 42.5753 36.7513 44.2401 38.6474 49.9599C40.3654 55.1425 47.0285 55.8837 50.7716 52.5664C54.0302 49.6785 53.4828 45.7019 55.0077 42.0147C56.2211 39.0806 58.5743 36.8127 60 34C49.0852 34 41.4004 33.3631 35.1489 23C32.9434 19.3439 33.9247 8.1747 40.652 10.3457C43.0129 11.1076 43.6934 14.6829 41.652 16.1373C40.1327 17.2198 38.5459 16.4218 37 16C37.7994 20.7901 42.9198 22.7661 45.821 17.8519C47.9771 14.1997 46.9795 8.49876 42.8912 6.74228C39.4342 5.25703 35.5807 6.54654 32 6.38966C28.9762 6.25719 26.0277 5.26366 23 5z"/>
<path style="fill:#f7f7f7; stroke:none;" d="M28 9C30.1501 11.0749 31.2049 11.5599 33 9L28 9M31 24L27 38C31.6955 37.0282 36.2128 35.4174 41 35L31 24M50 38L51 40C52.6352 39.4549 52.4549 39.6352 53 38L50 38M18 45C18 46.7968 18.0143 46.5215 19 48C20.0154 46.8607 20.3087 46.3884 21 45L18 45z"/>
</svg>
