<?xml version="1.0" standalone="yes"?>
<svg xmlns="http://www.w3.org/2000/svg" width="49" height="49">
<path style="fill:#f5f5f2; stroke:none;" d="M0 0L0 49L49 49L49 0L0 0z"/>
<path style="fill:#35342c; stroke:none;" d="M25 6C22.777 11.6654 18.7731 15.3629 14 19C13.187 15.43 13.6628 13.3807 15 10C10.4917 12.5379 7.11532 16.29 5 21C7.95289 20.0293 9.93235 19.4589 13 20C9.43709 24.0918 5.23927 28.4315 4.33411 33.9992C3.3609 39.9855 7.62574 43.1952 12.9954 40.1211C15.0818 38.9267 16.9904 37.3222 19 36C18.7094 37.9652 18.2861 39.8736 19.358 41.7222C22.8563 47.7552 30.1451 41.8508 27.8511 36.1381C27.2661 34.6814 26.1184 33.9878 25 33L31 27C32.2981 32.4523 32.0167 37.5234 31 43C40.603 35.6339 39.1718 29.4944 37 19L42 22C40.4675 17.4551 37.7104 14.0016 34 11C34.4637 13.1722 35.1055 14.9583 36 17L35 18C29.004 15.305 27.9344 11.3598 25 6z"/>
<path style="fill:#f5f5f2; stroke:none;" d="M21 19L18 22L23 30L25 30L29 25C26.6909 22.2848 24.14 20.6832 21 19M16 26C16.2937 29.8106 16.9838 31.8082 21 32L19 36C22.8164 32.0867 20.1899 28.435 16 26M23 35C22.6031 37.9309 22.5727 39.2459 25 41C24.8256 38.3875 24.5819 37.0567 23 35z"/>
</svg>
