<?xml version="1.0" standalone="yes"?>
<svg xmlns="http://www.w3.org/2000/svg" width="1000" height="976">
<path style="fill:#ffffff; stroke:none;" d="M0 0L0 976L1000 976L1000 0L0 0z"/>
<path style="fill:#010101; stroke:none;" d="M554 378C554.014 376.32 554.006 374.649 554.17 372.975C554.333 371.309 554.672 369.667 554.83 368C554.957 366.669 554.981 365.336 554.997 364C555.013 362.666 554.998 361.331 555.089 360L555.286 358C555.467 356.667 555.697 355.339 555.831 354L556.169 349L556.845 344L557.282 340L557.729 337L558.271 333L558.729 330L559.435 325C559.716 323.326 560.067 321.664 560.4 320L561.424 315C561.942 312.655 562.544 310.33 563.127 308L564.127 304C564.546 302.33 564.955 300.656 565.427 299C566.293 295.969 567.337 292.99 568.333 290C569.336 286.991 570.305 283.968 571.425 281C572.059 279.321 572.736 277.657 573.424 276L575.15 272L576.861 268L578.258 265L579.756 262L581.309 259C582.403 256.977 583.582 254.999 584.719 253L586.424 250C587.406 248.322 588.398 246.65 589.425 245C591.11 242.293 592.898 239.652 594.667 237C596.461 234.309 598.242 231.609 600.155 229C602.408 225.928 604.818 222.973 607.2 220L610.424 216L612.92 213L616.282 209L618.95 206L620.718 204C622.16 202.319 623.58 200.621 625.089 199C626.36 197.636 627.684 196.32 629.001 195L635 189L639 185.004C640.312 183.704 641.627 182.406 643 181.171C644.295 180.005 645.641 178.895 647 177.805C648.65 176.481 650.306 175.163 652 173.895C653.959 172.428 655.968 171.033 658 169.671C659.647 168.566 661.308 167.485 663 166.45C664.311 165.647 665.666 164.913 667 164.15C669.31 162.83 671.594 161.464 674 160.32C675.314 159.696 676.663 159.151 678 158.579C679.994 157.726 681.972 156.833 684 156.064C685.649 155.439 687.327 154.891 689 154.333C690.991 153.67 692.982 153.003 695 152.427C696.656 151.955 698.33 151.546 700 151.127C702.326 150.542 704.648 149.922 707 149.449L710 148.921C711.664 148.644 713.326 148.368 715 148.155L718 147.845C720.003 147.605 721.985 147.227 724 147.089C724.999 147.021 726 147.013 727 147.004L730 147L733 147.001L736 147.039C737.005 147.083 738.001 147.162 739 147.286L743 147.834L746 148.075C747.005 148.163 748.001 148.284 749 148.428L752 148.921L755 149.449C757.015 149.855 759.007 150.375 761 150.873C763.679 151.543 766.366 152.194 769 153.029C771.03 153.672 773.018 154.427 775 155.204C776.342 155.73 777.675 156.282 779 156.851C780.679 157.572 782.354 158.314 784 159.109C785.692 159.926 787.342 160.822 789 161.706C790.678 162.601 792.366 163.479 794 164.453C795.702 165.468 797.354 166.567 799 167.671C801.032 169.033 803.048 170.422 805 171.898C806.708 173.189 808.354 174.552 810 175.921C812.029 177.607 814.075 179.279 815.996 181.089C817.325 182.342 818.605 183.647 819.83 185.001C821.007 186.301 822.121 187.656 823.246 189C824.897 190.974 826.55 192.946 828.102 195C829.578 196.952 830.967 198.968 832.329 201C833.648 202.966 834.952 204.944 836.127 207C836.877 208.31 837.562 209.654 838.244 211L840.247 215C841.237 216.985 842.251 218.961 843.127 221C843.972 222.967 844.682 224.989 845.413 227L846.485 230C847.023 231.656 847.514 233.327 847.999 235C848.48 236.659 848.948 238.319 849.346 240C850.048 242.975 850.581 245.985 851.08 249C851.301 250.331 851.544 251.661 851.714 253L851.925 255L852.166 258L852.83 263C852.989 264.663 852.992 266.331 852.999 268L852.996 271L852.961 273C852.917 274.006 852.838 275.001 852.714 276L852.169 280L851.831 285C851.695 286.342 851.465 287.67 851.246 289C851.027 290.335 850.818 291.673 850.551 293C850.078 295.352 849.458 297.674 848.873 300C848.454 301.67 848.045 303.344 847.573 305C846.997 307.018 846.33 309.009 845.667 311C844.996 313.011 844.341 315.033 843.547 317C842.726 319.033 841.748 320.997 840.86 323C840.12 324.669 839.447 326.366 838.63 328C837.948 329.363 837.177 330.678 836.421 332L835.28 334L833.55 337C832.515 338.692 831.434 340.353 830.329 342C828.966 344.033 827.562 346.034 826.105 348L823.789 351C822.459 352.689 821.122 354.378 819.711 356C817.896 358.086 815.947 360.04 813.999 362L810 366L804 372C802.347 373.65 800.709 375.319 799 376.911L797 378.714L793 382.169L789 385.914L787 387.714L783 391.13L780 393.725L777 396.195C774.052 398.574 771.03 400.854 768 403.127C765.357 405.109 762.72 407.098 760 408.974C757.059 411.004 754.059 412.948 751 414.796C748.034 416.588 745.009 418.281 742 419.999L739 421.691C737.348 422.572 735.674 423.41 734 424.247C732.341 425.076 730.687 425.919 729 426.691C727.028 427.594 725.012 428.392 723 429.2L718 431.2C715.344 432.262 712.696 433.348 710 434.308C708.012 435.016 706.002 435.666 704 436.333C702.005 436.998 700.013 437.674 698 438.28L694 439.421L692 440L686 441.709C684.336 442.187 682.68 442.685 681 443.105C678.349 443.768 675.658 444.254 673 444.884L666 446.576C663.675 447.089 661.335 447.533 659 448C656.336 448.533 653.674 449.093 651 449.576L648 450.08L642 451.081L638 451.803C636.389 452.116 634.781 452.449 633.16 452.71L631.671 452.902L630 453L630.654 454.671L630.995 455.159L631.61 456.16L633.149 458.025L635.019 460.002L638 463L647 472L682 507L689 514L693 517.995L695 519.941L696 520.852L698 522.393L699 522.958L701 523.589C702.689 523.876 704.38 523.396 706 522.985L708 522.424L712 521.371C713.676 520.934 715.345 520.487 717 519.975L723 518.025C725.658 517.2 728.359 516.525 731 515.645C733.362 514.858 735.668 513.919 738 513.05L742 511.576L745 510.424L750 508.551L754 506.85C755.669 506.136 757.349 505.447 759 504.691L764 502.309L768 500.576C769.348 499.992 770.686 499.387 772 498.73C774.728 497.366 777.328 495.773 780 494.306L783 492.694L788 489.85L792 487.551L797 484.424L801 481.921C803.38 480.357 805.659 478.646 808 477.025L813 473.573C814.687 472.367 816.341 471.116 818 469.873C820.342 468.119 822.687 466.368 825 464.576L829 461.4C831.347 459.525 833.706 457.665 836 455.725L840 452.271L844 448.834L848 445.166C849.984 443.394 852.053 441.724 854 439.911C855.709 438.318 857.347 436.65 859 435L867 427L876 418C878.303 415.696 880.649 413.423 882.829 411C884.852 408.752 886.712 406.36 888.6 404C890.714 401.359 892.844 398.729 894.845 396C896.758 393.391 898.539 390.691 900.333 388L904.308 382C905.786 379.704 907.216 377.37 908.573 375C909.326 373.683 910.048 372.349 910.742 371L912.247 368L914.247 364L916.247 360C917.238 358.013 918.24 356.032 919.138 354C919.867 352.351 920.529 350.673 921.2 349C922.133 346.674 923.084 344.353 923.947 342C924.795 339.686 925.555 337.338 926.333 335L927.974 330L929.421 325C929.991 323.002 930.601 321.016 931.105 319C931.848 316.026 932.399 313.005 933 310L933.999 305L934.565 302L935.13 298L935.715 294L935.925 292L936.166 289C936.381 286.994 936.773 285.015 936.911 283C936.979 282.001 936.987 281 936.996 280L937 276L937 266L937 256L936.996 252C936.987 251 936.979 249.999 936.911 249C936.773 246.985 936.381 245.006 936.166 243L935.925 240L935.714 238C935.544 236.661 935.301 235.331 935.08 234L934.576 231L933.2 224L932.199 219C931.859 217.328 931.519 215.656 931.105 214C930.601 211.984 929.991 209.998 929.421 208L928.28 204C927.664 201.987 927.013 199.984 926.308 198L924.424 193L922.551 188L920.85 184C920.136 182.331 919.449 180.65 918.691 179C917.607 176.637 916.412 174.324 915.247 172C914.237 169.986 913.236 167.968 912.138 166C911.007 163.973 909.795 161.991 908.6 160L905.575 155C904.517 153.306 903.422 151.637 902.279 150C900.38 147.283 898.364 144.649 896.373 142C895.113 140.323 893.852 138.646 892.551 137C891.479 135.643 890.354 134.328 889.246 133C888.123 131.654 887.006 130.301 885.83 129C883.645 126.581 881.304 124.305 879 122L875 118.004C873.688 116.704 872.371 115.408 871 114.17C869.699 112.994 868.346 111.877 867 110.754C865.672 109.646 864.357 108.521 863 107.449C861.354 106.148 859.678 104.887 858 103.627C855.027 101.392 852.072 99.1268 849 97.0286C846.076 95.0313 843.035 93.2206 840 91.3997C837.683 90.0094 835.376 88.5968 833 87.3087C831.354 86.4165 829.673 85.5917 828 84.7531C825.676 83.5883 823.363 82.3935 821 81.3087C819.35 80.5513 817.668 79.8666 816 79.1505L812 77.4244C810.343 76.7363 808.679 76.059 807 75.4252C805.018 74.6769 803.01 74.0032 801 73.3333C799.338 72.7794 797.675 72.2324 796 71.7199L792 70.5787C790.003 70.0087 788.016 69.399 786 68.8951C784.012 68.3982 782 68.0167 780 67.5756L775 66.4491L771 65.7531L766 64.9197C764.668 64.7012 763.339 64.4564 762 64.2855L760 64.0748L757 63.8341C754.994 63.6194 753.015 63.2275 751 63.0895C750.002 63.0211 749 63.0127 748 63.0038L744 63L733 63L723 63L720 63.0038C719 63.0127 717.999 63.0211 717 63.0895C714.985 63.2274 713.006 63.6194 711 63.8341L708 64.0748L706 64.2847L702 64.8696L698 65.4352L694 66.1998L690 67L686 67.8009C684.328 68.1423 682.656 68.4812 681 68.8951C679.32 69.3149 677.664 69.8134 676 70.2909C673.999 70.8653 671.988 71.4076 670 72.0255C667.99 72.6501 665.997 73.334 664 74C661.995 74.6689 659.985 75.3254 658 76.0532C655.647 76.916 653.326 77.867 651 78.8002C648.988 79.6075 646.972 80.4059 645 81.3087C643.313 82.0811 641.66 82.9249 640 83.7531L636 85.7531L632 87.7531L629 89.2585C627.65 89.9526 626.317 90.6736 625 91.4275C622.63 92.7841 620.296 94.2139 618 95.6921L613 99C610.658 100.561 608.303 102.104 606 103.721C604.65 104.668 603.322 105.645 602 106.63L598 109.662C596.304 110.991 594.654 112.374 593 113.754C591.654 114.877 590.302 115.996 589 117.17C586.957 119.011 585.041 120.987 583 122.83L579.001 126.286C577.988 127.176 576.994 128.085 576.039 129.039C575.085 129.993 574.176 130.988 573.286 132.001L570.714 135C569.823 136.025 568.899 137.018 567.961 138C565.701 140.363 563.319 142.607 561.089 145C559.278 146.945 557.601 149.006 555.845 151L552.282 155C550.019 157.64 547.81 160.327 545.586 163C544.203 164.663 542.799 166.31 541.449 168C539.62 170.29 537.885 172.655 536.127 175L533.127 179C531.639 180.987 530.147 182.969 528.721 185C527.334 186.975 526.006 188.992 524.667 191C523.116 193.325 521.548 195.639 520.053 198C519.008 199.65 518.006 201.326 517 203L513.424 209L511.719 212C510.582 213.999 509.403 215.977 508.309 218C507.064 220.302 505.923 222.66 504.753 225C503.59 227.325 502.394 229.637 501.309 232C500.4 233.979 499.582 236 498.719 238L496.15 244L494.449 248L492.576 253L490.692 258L489 263L487.67 267C487.237 268.328 486.814 269.659 486.424 271L485.579 274C485.008 275.999 484.413 277.99 483.884 280L482.627 285L481.127 291L480.13 295L479.667 297L479.319 299L479.232 300L479.238 301L479.357 301.999L480.031 303.985L481.303 305.911L482.109 306.83L483.85 308.576L485.576 310.285L489.075 313.925L493.576 318.285L497.075 321.925L499.834 324.576L501.576 326.285L505.075 329.925L508.715 333.424L510.424 335.166L513.075 337.925L517.576 342.285L521.075 345.925L525.576 350.285L529.075 353.925L533.576 358.285L537.075 361.925L541.576 366.285L545.075 369.925L548.711 373.406L550.38 375.032L551.126 375.768L552.008 376.522L552.427 376.929L554 378M420 294.529C417.898 295.014 415.885 295.866 414 296.905C411.454 298.308 409.13 300.076 407.04 302.093L405.184 304.015L404.326 305.004L403.519 306.001L402.055 308L400.765 310C400.189 310.969 399.655 311.959 399.221 313C398.681 314.292 398.328 315.638 398.019 317L397.62 319L397.329 321L397.26 323C397.3 324.342 397.537 325.688 397.809 327C398.017 328.006 398.238 329.004 398.493 330L398.785 331L399.532 333L400 334L401.133 336L402.532 338L403.329 339L404.185 340L406.04 342L407.015 343L410 346L419 355L430 366L613 549L647 583L654 589.996C655.623 591.599 657.238 593.219 659 594.671C660.266 595.714 661.595 596.674 663 597.521L665 598.622L666 599.095C666.958 599.55 667.981 599.918 669 600.211C669.984 600.493 670.984 600.692 672 600.815C673.328 600.975 674.665 600.975 676 600.996L679 600.996C680.334 600.98 681.673 600.975 683 600.815C684.016 600.692 685.016 600.494 686 600.211C687.741 599.71 689.416 598.969 691 598.095L692.996 596.892L693.985 596.211L695.907 594.671L696.815 593.815L698.471 591.96C699.229 591.022 699.878 590.017 700.521 588.999L701.622 587L702.525 585L702.907 584C703.249 583.007 703.566 582.014 703.841 581C704.372 579.039 704.796 577.035 704.895 575C704.994 572.98 704.754 570.983 704.381 569C704.126 567.646 703.8 566.318 703.401 565L702.64 563C702.196 561.971 701.674 560.973 701.12 560C700.327 558.609 699.448 557.268 698.471 556C697.101 554.222 695.549 552.606 693.985 551L689 546L670 527L490 347L452 309L447 304.015C445.096 302.16 443.17 300.335 441 298.789L439 297.479L438 296.905L437 296.378L436 295.905L435 295.479C434.012 295.112 433.03 294.767 432 294.529C430.032 294.075 428.012 294.008 426 294.008C423.988 294.008 421.968 294.075 420 294.529M364 350.529C361.898 351.014 359.885 351.866 358 352.905C355.845 354.093 353.844 355.541 352.015 357.185C349.48 359.463 347.241 362.08 345.479 365C343.994 367.461 342.828 370.158 342.329 373C341.982 374.973 341.99 377.004 342.005 379C342.017 380.668 342.035 382.352 342.329 384C342.709 386.119 343.473 388.129 344.533 390L345.8 392L346.532 393L348.185 395L349.093 396L351.015 398L354 401L358 405L375 422L558 605L593 640L597 644L600 646.985C602.188 649.116 604.409 651.226 607 652.867C608.266 653.669 609.603 654.34 611 654.881C611.98 655.261 612.988 655.563 614 655.84C615.639 656.29 617.309 656.647 619 656.826C619.991 656.931 621.003 656.987 622 656.971C622.999 656.955 624.007 656.952 625 656.826L627 656.532C628.012 656.32 629.012 656.088 630 655.779C632.096 655.124 634.096 654.211 636 653.12C637.735 652.125 639.416 651.011 640.907 649.671L642.671 647.907L643.468 646.96L644.867 644.996L646.004 643L646.482 642L647.289 640L647.637 639C648.092 637.704 648.448 636.355 648.674 635C648.951 633.346 648.983 631.672 648.995 630C649.01 628.004 649.017 625.973 648.671 624C648.242 621.553 647.318 619.198 646.176 617C645.639 615.967 645.051 614.967 644.401 614C643.707 612.966 642.941 611.986 642.181 611.001C641.134 609.646 640.016 608.337 638.844 607.089C637.424 605.578 635.878 604.193 634.424 602.715L630.925 599.075L626.424 594.715L622.925 591.075L620.166 588.424L618.424 586.715L614.925 583.075L611.285 579.576L609.576 577.834L606.925 575.075L603.285 571.576L598.925 567.075L595.285 563.576L590.925 559.075L587.285 555.576L585.576 553.834L582.925 551.075L580.166 548.424L578.424 546.715L574.925 543.075L572.166 540.424L570.424 538.715L566.925 535.075L563.285 531.576L561.576 529.834L558.925 527.075L556.166 524.424L554.424 522.715L550.925 519.075L547.285 515.576L545.576 513.834L542.925 511.075L540.166 508.424L538.424 506.715L534.925 503.075L531.285 499.576L529.576 497.834L526.925 495.075L523.285 491.576L521.576 489.834L518.925 487.075L515.285 483.576L513.576 481.834L510.925 479.075L507.285 475.576L505.576 473.834L502.925 471.075L500.166 468.424L498.424 466.715L494.925 463.075L492.166 460.424L490.424 458.715L486.925 455.075L483.285 451.576L481.576 449.834L478.925 447.075L475.285 443.576L473.576 441.834L470.925 439.075L467.285 435.576L465.576 433.834L462.925 431.075L459.285 427.576L454.925 423.075L451.285 419.576L446.925 415.075L444.166 412.424L442.424 410.715L438.925 407.075L434.424 402.715L430.925 399.075L426.424 394.715L422.925 391.075L420.166 388.424L418.424 386.715L414.925 383.075L410.424 378.715L406.925 375.075L402.424 370.715L398.925 367.075L396.166 364.424L394.424 362.718C393.259 361.526 392.126 360.298 390.91 359.156C389.663 357.984 388.355 356.864 386.999 355.819C385.397 354.585 383.792 353.367 382 352.414C380.125 351.416 378.093 350.697 376 350.329C374.027 349.982 371.996 349.99 370 350.005C367.985 350.02 365.972 350.074 364 350.529M311 405.465C309.991 405.642 308.988 405.89 308 406.16C306.638 406.532 305.283 406.958 304 407.554L302 408.613L301 409.249L299 410.684L297.004 412.301L295.04 414.09C291.867 417.181 289.108 420.817 287.559 425C287.078 426.301 286.752 427.645 286.468 429L286.174 431L286.091 432L286.029 434L286.091 436L286.174 437L286.468 439C286.68 440.012 286.908 441.014 287.224 442L287.955 444L288.403 445L289.482 447L290.789 449L292.329 451C293.482 452.399 294.744 453.708 296.015 455L301 460L316 475L361 520L496 655L535 694L542 700.996C544.223 703.192 546.448 705.392 549 707.211C551.154 708.746 553.505 710.011 556 710.896C557.625 711.472 559.312 711.857 561 712.192C562.648 712.519 564.313 712.821 566 712.821C567.348 712.821 568.676 712.621 570 712.383C571.34 712.143 572.686 711.871 574 711.51L576 710.896L577 710.522L579 709.622C580.042 709.127 581.024 708.508 581.996 707.892L582.985 707.211L583.96 706.471L585.815 704.815C587.524 703.106 588.929 701.111 590.095 699C590.971 697.414 591.703 695.741 592.211 694C592.689 692.365 592.903 690.683 593.126 689C593.345 687.342 593.599 685.677 593.541 684C593.494 682.659 593.272 681.308 592.981 680C592.757 678.996 592.547 677.979 592.226 677L591.532 675C591.115 673.982 590.687 672.975 590.175 672C589.44 670.598 588.614 669.228 587.61 668L585.895 666L582.996 663L579 659L559 639L379 459L339 419L334 414.015C332.412 412.475 330.82 410.92 329 409.649C327.75 408.776 326.407 408.064 325 407.479C323.703 406.94 322.354 406.526 321 406.159C320.007 405.89 319.008 405.667 318 405.465L317 405.304L315 405.13L314 405.13L313 405.188L311 405.465M452 644L451.817 645.671L451.724 646.159L451.41 648.045L450.414 654L449.576 659C449.093 661.674 448.533 664.335 448 667C447.533 669.334 447.086 671.675 446.576 674L445.424 679L444.349 684C443.734 686.677 443.04 689.336 442.373 692C441.789 694.337 441.233 696.683 440.573 699L438.72 705L436.975 711L435.667 715L433.947 720L432.424 724L430.551 729L428.85 733C428.136 734.669 427.447 736.349 426.691 738L424.297 743L422.398 747L419.777 752L417.691 756C416.958 757.352 416.182 758.679 415.396 760C414.394 761.684 413.368 763.353 412.308 765L408.333 771C406.994 773.008 405.666 775.024 404.279 777C403.332 778.35 402.355 779.678 401.37 781L398.338 785C396.742 787.037 395.068 789.011 393.414 791L390.08 795C388.677 796.678 387.281 798.359 385.834 800L382.166 804C380.394 805.984 378.724 808.053 376.91 810C375.639 811.365 374.316 812.68 372.999 814L369 818L360 827C357.694 829.305 355.405 831.627 353 833.829C351.716 835.006 350.358 836.104 349 837.192L346 839.525L342 842.421C340.346 843.606 338.702 844.805 337 845.921L334 847.796L331 849.573C328.064 851.253 325.026 852.738 322 854.247C320.013 855.238 318.032 856.24 316 857.138C313.377 858.298 310.697 859.334 308 860.308L305 861.333C302.678 862.113 300.356 862.9 298 863.573L295 864.37C293.338 864.791 291.674 865.206 290 865.576C287.348 866.16 284.678 866.638 282 867.08C280.339 867.355 278.677 867.665 277 867.83C275.005 868.027 272.996 867.977 271 868.17L267 868.714C266.001 868.838 265.006 868.917 264 868.961C263.002 869.004 261.999 869.003 261 868.998C259.331 868.991 257.663 868.989 256 868.83L253 868.424C252 868.285 251.006 868.167 250 868.086C248.669 867.979 247.328 867.982 246 867.831C244.324 867.64 242.664 867.355 241 867.08L238 866.576C236.329 866.267 234.66 865.942 233 865.576C231.326 865.206 229.662 864.791 228 864.37L225 863.573C222.982 862.997 220.991 862.33 219 861.667L215 860.308C213.321 859.701 211.657 859.059 210 858.396C208.655 857.857 207.318 857.295 206 856.691L203 855.241L200 853.691C197.964 852.588 195.974 851.398 194 850.189C191.629 848.737 189.3 847.219 187 845.656C184.961 844.27 182.942 842.852 181 841.332C179.284 839.988 177.652 838.55 176 837.13C174.334 835.698 172.641 834.296 171.004 832.83C169.993 831.925 169.027 830.967 168.09 829.985C166.261 828.071 164.594 826.007 162.87 824C161.45 822.348 160.012 820.716 158.668 819C157.148 817.058 155.73 815.039 154.344 813C152.781 810.7 151.263 808.371 149.811 806C148.209 803.386 146.642 800.744 145.27 798C144.288 796.037 143.439 794.018 142.579 792L140.861 788C140.452 787.008 140.054 786.012 139.695 785L138.001 780C137.453 778.341 136.907 776.681 136.427 775L135.63 772C135.209 770.338 134.794 768.674 134.424 767C134.058 765.34 133.733 763.671 133.424 762L132.92 759C132.699 757.669 132.453 756.339 132.286 755L132.086 753C132.001 751.667 131.964 750.33 131.831 749L131.285 745L131.09 743L131.015 741L131.004 738C131.015 736.664 131.043 735.331 131.17 734L131.576 731C131.715 730.001 131.837 729.007 131.911 728C132.033 726.335 132.006 724.663 132.17 723C132.269 721.994 132.431 720.998 132.59 720L133.081 717C133.476 714.657 133.913 712.321 134.424 710C134.794 708.326 135.209 706.662 135.63 705L136.427 702C137.004 699.981 137.672 697.992 138.333 696L139.667 692C140.234 690.324 140.788 688.641 141.453 687C142.143 685.297 142.946 683.648 143.756 682L146.753 676C147.592 674.327 148.416 672.646 149.309 671C150.227 669.307 151.208 667.648 152.204 666C153.851 663.272 155.571 660.591 157.428 658C158.894 655.955 160.436 653.967 162.004 652C163.356 650.304 164.719 648.613 166.171 647C167.721 645.277 169.366 643.643 171.001 642L176 637L182 631C183.653 629.35 185.291 627.682 187 626.089C188.945 624.278 191.006 622.601 193 620.845L197 617.282L201 613.92L205 610.611C206.977 609.007 208.976 607.429 211 605.884L216 602.127C218.312 600.395 220.623 598.666 223 597.025C225.297 595.44 227.631 593.901 230 592.425L235 589.4C236.991 588.205 238.973 586.994 241 585.862C242.974 584.76 244.998 583.752 247 582.703L250 581.108L252 580.108L255 578.703C257 577.755 258.975 576.756 261 575.862C262.649 575.133 264.327 574.471 266 573.8C268.326 572.867 270.647 571.916 273 571.053C275.314 570.205 277.661 569.446 280 568.667C281.995 568.002 283.986 567.326 286 566.72L291 565.291L294 564.424L298 563.375L302 562.424L306 561.576L311 560.449C312.658 560.117 314.333 559.867 316 559.586C318.665 559.139 321.328 558.677 324 558.272L327 557.87L331 557.285L333 557.075L336 556.834L341 556.169L346 555.831C347.34 555.697 348.667 555.467 350 555.286L352 555.089C353.329 554.998 354.664 555.004 355.995 555.001L362 555L361.346 553.329L361.005 552.841L360.39 551.839L358.851 549.975C357.603 548.615 356.3 547.309 354.999 546L347 538L318 509L312 503L308 499.005C307.018 498.043 306.055 497.047 305 496.163L303 494.693L302 494.198L301 493.89L299 493.738L297 493.94C295.997 494.086 294.992 494.242 294 494.449C292.323 494.799 290.663 495.213 289 495.627L281 497.627L276 498.884C273.989 499.413 271.999 500.008 270 500.579L267 501.424L264 502.344L257 504.667C254.662 505.446 252.315 506.205 250 507.053C248.321 507.669 246.661 508.337 245 509L239 511.424L236 512.719C234 513.581 231.979 514.4 230 515.309C228.314 516.083 226.66 516.925 225 517.753L219 520.753L215 522.753C213.327 523.591 211.646 524.417 210 525.309C207.283 526.782 204.648 528.408 202 530L198 532.424L194 534.95L189 538.079C186.959 539.42 185.001 540.88 183 542.28L177 546.427C175.313 547.634 173.654 548.879 172 550.13C169.635 551.917 167.302 553.743 165 555.611C162.31 557.794 159.661 560.029 157 562.247L154 564.754L151 567.286L146 571.834C144.016 573.606 141.947 575.276 140 577.089C138.291 578.682 136.653 580.35 135 582L128 589L121.001 596C119.052 597.958 117.104 599.914 115.289 602C114.437 602.98 113.621 603.99 112.804 605L109.6 609L106.424 613L102.63 618C101.404 619.648 100.187 621.303 99.0285 623C97.2505 625.603 95.6236 628.299 94 631C92.801 632.994 91.583 634.98 90.4275 637L89.3086 639L86.7029 644L84.6019 648L82.223 653C81.4291 654.664 80.6071 656.313 79.8619 658C78.9883 659.977 78.2024 661.993 77.3997 664C76.4704 666.323 75.5319 668.643 74.6921 671L73.3333 675L71.7199 680L70.5787 684C70.0087 685.998 69.3989 687.984 68.8951 690C68.2341 692.645 67.7344 695.328 67.1998 698L66.1998 703L65.4352 707L64.8696 711L64.1551 716L63.8449 719C63.6451 720.67 63.3292 722.326 63.1698 724C62.9484 726.325 63.0009 728.668 63 731L63 742L63 753C63.0009 755.332 62.9484 757.675 63.1698 760C63.3292 761.674 63.6451 763.33 63.8449 765L64.2824 769L64.9198 773L65.5864 777C65.8667 778.667 66.1174 780.342 66.4491 782L67.5756 787C68.0167 789 68.3982 791.012 68.8951 793C69.399 795.016 70.0087 797.002 70.5787 799C71.0549 800.669 71.5023 802.346 72.0285 804C72.4569 805.346 72.9282 806.677 73.4244 808L74.5764 811L76.4491 816L78.1505 820C78.8643 821.669 79.5512 823.35 80.3086 825C81.0828 826.686 81.9252 828.34 82.7531 830L84.7531 834C85.7624 836.015 86.7637 838.032 87.8619 840C89.3793 842.72 91.0157 845.376 92.6921 848L95.3333 852L98.7207 857C99.6654 858.357 100.651 859.686 101.654 861C103.47 863.378 105.352 865.708 107.275 868L109.87 871C111.303 872.666 112.695 874.37 114.17 876C115.725 877.719 117.365 879.357 119.001 880.999C120.316 882.32 121.636 883.64 123 884.911C124.941 886.718 126.99 888.401 129 890.13L133 893.565C135.933 895.983 138.911 898.355 142 900.572C144.292 902.217 146.649 903.772 149 905.333C152.593 907.717 156.233 910.036 160 912.138C162.618 913.599 165.319 914.906 168 916.247C170.325 917.41 172.637 918.606 175 919.691C176.65 920.449 178.331 921.135 180 921.85C181.331 922.42 182.651 923.022 184 923.551L189 925.424L192 926.576C193.323 927.072 194.654 927.543 196 927.971C197.984 928.603 199.999 929.135 202 929.709L205 930.576C207.65 931.303 210.316 931.984 213 932.576C216.972 933.452 220.99 934.085 225 934.753C226.998 935.086 228.995 935.432 231 935.718L235 936.155C237.003 936.395 238.986 936.773 241 936.911C241.998 936.979 243 936.987 244 936.996L248 937L258 937L268 937L272 936.996C273 936.987 274.002 936.979 275 936.911L277 936.714L280 936.282L284 935.845L288 935.271L293 934.565L297 933.8L302 932.8C304.672 932.266 307.355 931.766 310 931.105C312.016 930.601 314.002 929.991 316 929.421L320 928.28C322.013 927.664 324.016 927.013 326 926.308L331 924.424L336 922.576C337.677 921.937 339.35 921.278 341 920.573C343.378 919.556 345.687 918.401 348 917.247L352 915.247L356 913.247C358.015 912.238 360.032 911.236 362 910.138C363.688 909.196 365.342 908.194 367 907.2C369.017 905.99 371.039 904.785 373 903.484L378 900.024L381 897.975C382.35 897.042 383.686 896.089 385 895.105C387.376 893.326 389.682 891.454 392 889.6C394.013 887.99 396.054 886.404 398 884.711C400.086 882.896 402.041 880.948 404 878.999L411 872L419 864C420.984 862.015 422.997 860.054 424.91 858C426.724 856.053 428.394 853.984 430.166 852L434.715 847L438.13 843L440.728 840L444.079 836L446.551 833L450.424 828C451.984 825.999 453.583 824.03 455.105 822C456.583 820.029 457.989 818.005 459.421 816L462.28 812L465.667 807L468.308 803C469.79 800.698 471.192 798.347 472.6 796L475.573 791L478.306 786L481.691 780L483.244 777L484.742 774L486.139 771L487.86 767L490.573 761C491.419 759.016 492.199 757.003 493 755C494.199 752.003 495.421 749.015 496.575 746C497.081 744.678 497.541 743.339 497.997 742L501.333 732C502.221 729.337 503.141 726.681 503.975 724L505.421 719L506.849 714L507.873 710L508.621 707L509.053 705L509.186 704L509.096 702L508.799 701L508.306 700L506.837 698C505.953 696.945 504.957 695.982 503.995 695L500 691L494 685L468 659L460 651.001L457.025 648.059L455.16 646.321L454.159 645.517L453.671 645.086L452 644z"/>
</svg>
