<?xml version="1.0" standalone="yes"?>
<svg xmlns="http://www.w3.org/2000/svg" width="80" height="78">
<path style="fill:#f9f9f9; stroke:none;" d="M0 0L0 78L80 78L80 0L0 0z"/>
<path style="fill:#2a2a2a; stroke:none;" d="M30 61C23.8969 54.6231 14.0041 46.9126 10.1836 39C7.7588 33.9779 11.7545 27.7204 17 26.5725C21.8288 25.5159 26.1704 31.6046 23.2153 35.7523C19.6635 40.7375 17.8272 35.3391 18 32C13.7196 34.7839 13.4214 41.1817 20.0008 40.5471C27.6743 39.8069 30.9581 27.1143 23.7863 23.3573C15.1513 18.8338 6.08051 30.1089 7.21759 38C8.69577 48.2582 21.3777 56.7775 27 65L29 65C32.3078 59.9785 35.6925 54.1735 40 50C41.0864 56.0947 44.6397 61.3309 47 67C52.1612 63.2012 55.9354 57.7957 60.1551 53C63.8171 48.8381 68.6509 44.4395 70.3472 39C72.3234 32.6632 70.3853 24.4941 62.9992 23.2323C58.8483 22.5231 53.5074 23.715 50.8935 27.2245C48.1756 30.8738 48.1078 38.5442 53.1088 40.3773C60.5762 43.1145 64.4198 30.636 55 32C56.3926 33.4336 57.2328 34.0449 59 35L59 37C53.907 36.7804 49.914 31.5919 55.1489 27.7423C61.4071 23.1402 69.209 30.1636 68.0147 37C66.1781 47.5125 54.2876 53.8036 50 63L48 63C46.2433 57.7647 41.3335 51.5882 41.5918 46C41.9778 37.6505 47.1928 30.9025 45.7863 22C45.0683 17.4558 40.4894 11.4349 35.6528 15.7431C27.2935 23.1889 37.137 37.6359 37.0918 46C37.0634 51.2607 32.3829 56.5227 30 61z"/>
<path style="fill:#f9f9f9; stroke:none;" d="M37 16C33.8892 24.5354 34.3884 35.4982 40 43C43.314 35.5144 47.9293 19.4203 37 16z"/>
</svg>
