<?xml version="1.0" standalone="yes"?>
<svg xmlns="http://www.w3.org/2000/svg" width="50" height="73">
<path style="fill:#fafafa; stroke:none;" d="M0 0L0 73L50 73L50 0L0 0z"/>
<path style="fill:#171717; stroke:none;" d="M31 6L30.4167 8.05556L30.0833 10L30.0278 10.9444L30 11.9444L30 14L26 14L26 7L24 7L23 8L23 15L21.5 15.5278L19.9444 16.5L18.1111 18.0833L16.75 20L16.3611 22L16.5278 23L17.5 24.8889L19.0278 26.2778L20.5 26.8889L22 27L22 31L20.5 31.0278L18.9722 31.3333L18.1111 31.7222L16.7222 33.0556L16.1111 34.5L16 36L17.5 36.7222L18 36.75L19 36.9444L21 37L21 44L18.9444 44L17.9444 44.0278L17 44.1111L16 44.3056L15 44.6389L14 45.1111L13.0278 45.7222L11.3333 47.2222L10.7222 48.0833L10.3333 49.0278L10.0556 51L10.25 53L10.5 54L11.5 56L13.0833 57.8889L15 59.2778L16.9444 59.8889L18.5 60L20 60L20 69L22 68L23 68L23 59L27 59L27 61.0556L26.9722 63L26.9167 64L26.6111 65.9444L26.25 67.5L26 69L27.4722 68.6389L28.7222 67.6667L29.2778 66.8889L29.8889 65L30 63L30.0278 62L30.3333 60L30.7222 59.0278L32.1111 57.2222L33.0278 56.3889L34 55.6111L35.9167 53.9167L37.5 52L38.0833 51L38.5833 50L39.3056 48L39.5833 47L39.9167 45L40 43L39.9722 42L39.8889 41L39.3611 39L38.2778 37L37.5833 36L36.8056 35L36.0278 34.0556L35.2778 33.0556L34.7778 32.5L34 31L35.25 30.6389L36.3333 29.6667L37.3611 27.9722L37.8889 26L37.9722 25L38 23L37.8889 21L37.2778 19L35.9167 17L35.0833 16L33.7222 14L33.3333 13L33.1111 12L33 10L33 9.05556L33 6L31 6z"/>
<path style="fill:#fafafa; stroke:none;" d="M26 17L25.9722 19.0556L25.9167 20.0556L25.6111 22L25.3889 23L25.0833 25L25.0278 26L25 27.9444L25 30L29 30L29 17L26 17M20 19L20 23L22 23L22 19L20 19M32 20L32 30L33.4167 29.6389L34.5556 28.6667L35.5 26.9722L35.8333 25L35.5556 23.0556L35.1389 22.0556L34 20L32 20M25 36L24.2778 37.5L24.25 38.0556L24.0556 39.0556L24.0278 41L24.1111 42L24.3333 42.9722L25.2778 44.6667L26.5278 45.6389L28 46L28 36L25 36M31 36L31 54L32.5 53.6389L34.0278 52.6667L34.8889 51.8889L36.2778 50L36.8889 48L36.9722 47L36.9722 46L36.7778 44L36.5833 43L35.8889 41L35.3889 40L34.1111 38.1111L33.4167 37.3333L32.25 36.3611L31 36M20 57L19.6667 55.5L19.3889 54.9444L18.6111 53.0556L18.3333 52.5L18 51L19.3889 50.4722L20.3333 49.5556L20.6667 48.8056L20.8889 48.4167L21 47L19.5 47L17.9444 47.1111L17 47.3333L16.0278 47.7222L14.3333 49.1111L13.4444 51L13.75 53L15.1111 54.8889L16.9444 56.2778L18.5 56.8889L20 57M24.3333 49.6667L24.3333 50.3333L24.6667 50.3333L24.6667 49.6667L24.3333 49.6667M25 53L24.2778 54.4444L24.25 55L24 57L25.3889 56.8889L26.3333 56.2778L26.6667 55.7222L26.9722 54.4722L27 53L25 53z"/>
</svg>
