<?xml version="1.0" standalone="yes"?>
<svg xmlns="http://www.w3.org/2000/svg" width="70" height="55">
<path style="fill:#f8f8f8; stroke:none;" d="M0 0L0 55L70 55L70 0L0 0z"/>
<path style="fill:#2f2f2f; stroke:none;" d="M16 33L17.5 32.6667L18.0556 32.3611L19.0556 31.8889L20 31.3056L21 30.6667L23 29.3056L24 28.6111L25 27.8611L26.8889 26.4167L27.6944 25.6667L28.2222 25.25L29 24L30.4167 25.5L30.7778 26.0556L31.4722 27.0556L32 29L31.8333 30L30.9444 32L30.3056 33L29.5833 34L28 36L26.3889 38L24.8611 40L24.1389 41L23.3889 42L22.1111 44L21.6389 44.9444L21.1111 46.5L21 48L22.4722 47.2222L22.9722 46.6944L23.8333 45.8889L25.3889 44L26.1944 43L27.8056 41L28.5833 40L29.3056 39L30.6944 37L31.4167 36L33.0278 34.1111L33.9722 33.3056L34.5 32.7778L36 32L36.5278 33.5L36.9167 34.0556L37.5 35.0556L38.2222 36L39 37L40.6111 39L42.1389 41L42.8611 42L44.3889 43.9722L46.0278 45.6667L47.5 46.6389L49 47L48.6389 45.5L48.3056 44.9444L47.75 43.9444L46.3611 42L45.6389 41L44.8611 40L43.3889 38L42.6944 37L41.3056 35L40.5833 34L39.0278 32L38.3333 31L37.6667 29L37.8333 28.0278L38.3611 27.1389L39.1111 26.4444L41 25.9722L43 26.75L44 27.3889L46 28.8611L47 29.6389L49 31.1111L50.9444 32.3056L52.5 32.8889L54 33L55.4444 30.9444L56.8611 29L57.6111 28L58.3056 27L59.6944 25L60.3611 24.0556L61.5833 22.5L63 21L63 19L61.5 17.5833L60.9444 17.1667L59.9444 16.3333L58 14.8611L57 14.1389L55 12.6389L54 11.8611L52 10.4722L51.0556 9.94444L49.5 9.27778L48 9L46.75 10.5L45.5833 12.0556L44.8611 13L44.1389 14L43.3611 15L41.8611 17L41.1389 18L40.3611 19L39.6389 20L38.8611 21L37.4722 22.9444L36.9167 23.9444L36.5278 24.5L36 26L34.5278 25.2222L34.0278 24.6944L33.1667 23.8889L31.6944 22L30.3056 20L29.5833 19L28.8056 18L27.1944 16L26.4167 15L25 13L24.3056 12.0278L22.7778 10.3333L21.9167 9.75L20.9722 9.44445L20 9.41667L19 9.66667L17 10.6944L15 12L13 13.3889L12 14.1389L10.0278 15.6389L9.11111 16.3889L7.75 18.0833L7.44444 19.0278L7.41667 20L8.11111 22L9.38889 24L10.1389 25L11.6389 27L12.3611 28L13.1389 29L13.8056 29.9444L14.5556 30.9444L16 33z"/>
<path style="fill:#f8f8f8; stroke:none;" d="M9 19L9.69444 20.5L10.0833 21.0556L10.7222 22.0556L12.1389 24L13.6111 26L14.9167 27.9444L15.3056 28.5L16 30L17.5 29.8889L19.0556 29.3056L21 28.1111L23 26.6111L24.9444 25.0278L25.9444 24.2778L26.5 23.7778L28 23L27.6389 21.5L27.3056 20.9444L26.75 19.9444L25.3611 18L24.6389 17L23.8611 16L23.1944 15.0556L22.4444 14.0556L21 12L19.5 12.1111L17.9444 12.6944L16 13.8889L14 15.3611L13 16.1389L12.0556 16.8056L11.0556 17.5556L9 19M49 12L47.75 13.5L46.5833 15.0556L45.8611 16L45.1389 17L44.4167 17.9444L43.25 19.5L42 21L42 23L43.5 24.25L45.0556 25.4167L46 26.1389L47 26.8611L47.9444 27.5833L49.5 28.75L51 30L53 30L54.4167 28.5L54.8333 27.9444L56.3611 26L57.8333 24L58.5278 23L59.0556 22.0556L59.7222 20.5L60 19L58.5 17.75L56.9444 16.5833L56 15.8611L55 15.1389L54.0556 14.4167L52.5 13.25L51 12L49 12z"/>
</svg>
