<?xml version="1.0" standalone="yes"?>
<svg xmlns="http://www.w3.org/2000/svg" width="62" height="53">
<path style="fill:#f6f6f6; stroke:none;" d="M0 0L0 53L62 53L62 0L0 0z"/>
<path style="fill:#2a2a2a; stroke:none;" d="M24 28C19.6139 23.2232 16.5253 15.1356 11 12C10.4646 18.7839 8.78431 25.569 12 32C20.365 48.729 42.4567 50.1517 51.4275 33C54.3202 27.4693 53.7205 17.8208 52 12C48.2125 15.747 45.3649 21.2249 43 26C42.4559 21.0561 43.5279 16.3875 40.3472 12.044C35.3028 5.15543 26.9361 6.53111 23.4174 14.0154C21.1804 18.7737 22.2932 23.3168 24 28z"/>
<path style="fill:#f6f6f6; stroke:none;" d="M29.0586 11.0316C19.9677 15.8652 25.3089 34.2996 35.811 28.5285C44.1624 23.9393 39.0608 5.7136 29.0586 11.0316M12 18C12.1221 23.9178 12.7317 30.1689 16.5332 34.9606C25.243 45.9395 41.4654 45.3918 48.7716 32.9961C51.3311 28.6537 51.788 22.9387 52 18C47.7111 20.6021 45.7505 25.4947 41.9599 28.7724C40.4688 30.0617 38.8512 31.0563 37 31.7361C24.0639 36.4867 20.629 23.4922 12 18z"/>
</svg>
