<?xml version="1.0" standalone="yes"?>
<svg xmlns="http://www.w3.org/2000/svg" width="80" height="60">
<path style="fill:#f6f6f6; stroke:none;" d="M0 0L0 60L80 60L80 0L0 0z"/>
<path style="fill:#232323; stroke:none;" d="M41 9C40.2528 10.646 39.6078 12.4065 38.4306 13.811L36.8549 15.3488L35.9421 15.9907L34.9807 16.5424L33.9954 16.9869L32 17.5664L30 17.7245C28.9981 17.7243 27.9824 17.5607 27 17.3804L24 16.7647L22 16.2701L20 15.7647L19 15.5687L17.0008 15.463L15.0185 15.8981L14.0548 16.3326L13.1335 16.8974L11.5139 18.3441L10.8588 19.189L10.3218 20.0941L9.61651 22.0147L9.41744 24.0008L9.78241 26L10.1937 27L10.7461 28L12.2284 29.9992L14.044 31.9853L15.0154 32.9606L17.0008 34.8302L21 38.2816L25 41.8449C26.6459 43.2814 28.3202 44.6829 30 46.0795C31.6429 47.4454 33.2748 48.8337 35 50.0965L37 51.4977L38 52.088L39 52.5525L41 52.9228L42 52.784L43 52.4367L45 51.2978L47 49.8789L50 47.7068L53 45.5247L56 43.1921L59 40.7253L62 38.1304L63.9992 36.4205L65.9853 34.7145L66.9599 33.8302C67.8983 32.9163 68.8268 32.0027 69.6559 30.9853L71.1065 28.9992L71.6821 28L72.4815 26L72.8079 24.0008L72.6636 22.0154L72.392 21.044L71.3966 19.2284L69.8519 17.7423L67.9807 16.7423L65.9992 16.2284L64 16.0478L62 16.044L60 16.1844L58 16.5139C56.0118 16.9076 54.0583 17.6803 52 17.6019L50.0039 17.3071L49.0147 16.9761L48.0401 16.5394L46.1883 15.348L44.5586 13.8048L43.2238 12.0949L42.6991 11.3056L42.1435 10.5131L41.8858 10.0856L41 9z"/>
<path style="fill:#f6f6f6; stroke:none;" d="M41 18L39 19.1944L38.4938 19.517L37 20L37.6543 21.294L38.6088 22.2191L40.1242 22.963L41.8588 23.1435L43.3295 22.8387L45 22L43.9599 20.4776L42.841 19.3588L42.5224 19.0401L41 18M16 27L16.5903 24.8997L17.0293 23.9877L18.3133 22.5787L20.0139 21.6019L20.8588 21.3179L22.3295 21.0617L24 21L22.9136 20.1188L21.679 19.6728L19.9421 19.5324L18.9861 19.6366L17.0586 20.1636L15.3333 21.0895L14.6474 21.6983L14.135 22.3997L13.7276 23.9591L14.0833 25.4051L14.5802 26.0085L16 27M59 20L60.0864 20.6875L60.5162 20.8287L61.3164 21.1844L63 21.858L64.6867 22.8302L65.9707 24.1181L66.4097 24.9738L67 27L69 27L68.7739 24.885L68.5656 23.9483L67.821 22.409L67.2577 21.7377L65.7731 20.7423L63.9807 20.2284L62.1566 20.044L59 20M27 25L28.0864 26.6667L29.3164 28.1019L30.1134 28.8958L31.858 30.3943L33.3295 31.3457L35 32L35.8974 30.375L36.0409 30L36.5849 28.625L37 27L35.3287 26.3171L33.841 25.8742C32.6253 25.5775 31.4025 25.3224 30.159 25.1728L28.6713 25.0417L27 25M45 27L45.7199 29.0069L46.1852 29.8233L47.4344 30.8488L49.108 31.0802L50.9969 30.3426L51.9452 29.6875L53.679 28.1011L54.9136 26.6667L56 25L54.3287 25.0417L52.8395 25.1705C51.2653 25.373 49.7125 25.6608 48.1605 25.9907L47.159 26.2693L46.6713 26.3735L45 27M19 27L19.4715 28.6713L20.1852 30.1605L21.4344 32.0247L22.2284 33.0046C23.1276 34.0266 24.048 35.021 25.0139 35.9807C26.2273 37.1863 27.478 38.3512 28.8395 39.3897L29.841 40.0046L30.3287 40.3457L32 41L31.9383 39.3287L31.8526 38.841L31.3966 36.9552L30.9722 35.9761L29.6821 34.0131L27.9414 32.0941L26.9807 31.189L25.0039 29.5725L24.0247 28.8935L22.1605 27.8596L20.6713 27.3009L19 27M49 41L50.6713 40.4437L52.1605 39.6759L54.0247 38.4267L55.0046 37.6559L56.0008 36.811L57.9807 34.9599L59.8519 33.0008L60.6821 32.0239L61.9707 30.1605L62.6574 28.6713L63 27L61.3287 27.4715L59.8395 28.1813L57.9753 29.3951C56.9627 30.1556 55.9757 30.9456 55.0046 31.7585L53.0586 33.4282L52.1481 34.2847L50.6034 36.0648L49.6042 37.8542L49.3148 38.8449L49 41M40 42L41.2569 41.3457L41.5664 41.0046L42.7431 39.6836L43.2562 38.8511L43.9545 36.9853L44.0671 36.0154L43.689 34.1674L43.2076 33.3765L41.8256 32.3457L41.0386 32.2068L40.2747 32.3457L39.0424 33.3765L38.4468 35.0617L38.4074 36.0154L38.5131 36.9799L38.7307 37.956L38.9985 38.8395L39.5054 40.3287L40 42M35 41L35.338 42.652L35.5656 43.1003L36.4429 44.7238L37.4884 45.9182L39 47L38.5718 45.3488L38.0085 43.9884L37.1443 42.5856L36.2415 41.6528L35 41M45 41L43.8704 44L43.5818 44.8858L43.4105 45.3549L43 47L44.5116 45.9182L45.5571 44.7238L46.4344 43.1003L46.662 42.652L47 41L45 41z"/>
</svg>
