<?xml version="1.0" standalone="yes"?>
<svg xmlns="http://www.w3.org/2000/svg" width="60" height="51">
<path style="fill:#fbfbfb; stroke:none;" d="M0 0L0 51L60 51L60 0L0 0z"/>
<path style="fill:#242424; stroke:none;" d="M39 2L37.5 3.5L36.0556 5.05556L34.6389 7L33.6389 9L32.75 11L32.2222 12L31.75 13L30.5556 15L29.8333 16L28.3889 18L27.0833 19.9444L26.6944 20.5L26 22L24.5833 20.5L24.1667 19.9444L23.3333 18.9444L22.6111 18L20.9167 16L19.9722 15L18 13L16 11.0278L15 10.1111L13 8.72222L11 8.11111L10.0556 8.02778L8.5 8L7 8L7.36111 9.41666L7.72222 9.83333L8.33333 10.6667L10.0278 12.2222L11 13.0833L13 15L14.9722 17L15.9167 18L17.6111 20L19.1389 22L19.8333 23L20.5278 23.9444L21.0833 24.9444L21.4722 25.5L22 27L20.75 27.7778L20.3333 28.3056L19.5556 29.1111L18.8056 30.0278L18 31L16.3889 33L14.8056 35L13.1944 37L12.3889 38L11.6389 39L10.1667 41L9.47222 42L8.94444 42.9444L8.27778 44.5L8 46L9.08333 45.2222L9.47222 44.6944L10.25 43.8889L11 42.9722L12.6111 41L14.2222 39L15.9444 37L17.6111 35L18.3889 34L20.0833 32L20.9722 31.0556L21.9444 30.0556L24 28L24.5278 29.5L24.9167 30.0556L25.4722 31.0556L26.1667 32L26.8611 33L27.6389 34L29.1389 36L30.6389 37.9722L31.3889 38.9167L33.0833 40.6111L35 42.1111L36 42.7778L37 43.3889L39 44.3056L40 44.6667L41.9444 45.3333L42.5 45.5556L44 46L43.6389 44.5833L43.2778 44.1667L42.6944 43.3333L41.9722 42.6111L40.3889 40.9167L39.6111 39.9722L37.9167 38L36.0278 36L35.0833 35L33.3889 33L32.6389 32L31.1389 30L30.3889 29L29.0278 27L28.4167 26.0556L27.8889 25.0556L27.5278 24.5L27 23L28.25 22.2222L28.6667 21.6944L29.4444 20.8889L30.9722 19L31.6944 18.0556L32.2778 17.0556L32.6389 16.5L33 15L34.4722 16.5L35.8056 18.0556L36.5 19L37.5 21L37.75 22L37.9167 23L38 24.9444L38 27L39.1389 26.2222L39.3333 25.6944L39.7222 24.8889L39.8889 23.9722L40 22L39.9167 20L39.5278 18L38.7222 16.0278L37.5833 14.3333L36.4167 13.3611L35 13L35.4167 11.5556L35.75 10.4444L36 9L37.5 9.52778L38.0556 9.91666L39.0556 10.5L41 12.0833L42.8889 14L44.3611 16L45.3056 18L45.6667 19L46.3056 20.9444L46.5833 21.9444L46.75 22.5L47 24L47.9722 23.2222L48.1389 22.6944L48.5556 21.8889L49 20L49.3889 18L49.6111 17L49.8056 15L49.6667 14L48.8889 12L48.2778 11L46.7778 9L44.9722 7L44 6L42.0556 4.11111L41.0556 3.30556L40.5 2.77778L39 2z"/>
</svg>
