<?xml version="1.0" standalone="yes"?>
<svg xmlns="http://www.w3.org/2000/svg" width="76" height="85">
<path style="fill:#fcfcfc; stroke:none;" d="M0 0L0 85L76 85L76 0L0 0z"/>
<path style="fill:#141414; stroke:none;" d="M25 14L25 16C28.3041 16.8828 30.0799 16.9569 32 14C29.4893 13.6415 27.5018 13.5975 25 14M37 14L37 16C39.7455 16.7639 41.2545 16.7639 44 16L44 14C41.4075 13.4924 39.5925 13.4924 37 14M49 14L49 16C51.4578 16.6464 52.5422 16.6464 55 16L55 14C52.6403 13.52 51.3374 13.4808 49 14M12 29C17.0451 29.3982 21.9177 29.9994 27 30C19.1118 36.892 13.2477 42.8058 14.0941 54C15.4378 71.7699 36.9384 80.4485 50.9846 69.4668C57.428 64.4291 60.9177 55.058 58.4861 47.0008C55.8274 38.1911 43.7152 35.0248 36.0147 38.7685C22.3202 45.4262 31.4429 67.6156 44.8519 58.142C51.1062 53.7232 44.7322 45.2131 39 52C41.3572 53.1035 42.3761 53.9564 44 56C38.9578 55.9404 28.255 51.5129 33.909 44.8002C40.1995 37.3317 52.2889 43.1568 54.9522 51C56.8518 56.5944 52.8463 62.2195 48.9568 65.8912C33.3336 80.6394 9.14707 57.0493 20.0054 40.0401C25.6439 31.2076 38.5542 29.711 48 28.4252C53.7418 27.6436 59.6369 29.4273 62 23C49.2924 23 36.6347 24.1188 24 25.409C18.9077 25.9289 13.8836 22.855 12 29z"/>
</svg>
