<?xml version="1.0" standalone="yes"?>
<svg xmlns="http://www.w3.org/2000/svg" width="39" height="28">
<path style="fill:#f8f8f5; stroke:none;" d="M0 0L0 16L1.67052 15.0571L2.15509 14.7539L4.0054 13.6613C5.23217 12.93 6.45324 12.2083 7.57562 11.3194C8.48809 10.5968 9.31685 9.7756 10.1698 8.98611L11.0895 8.14506L13.0147 6.56481L14.0039 5.87886L15.0008 5.28241L16 4.78395L17 4.38735L18.9992 3.92284L20.9853 3.95679L21.9606 4.18287L22.9105 4.54244L24.7145 5.60494L25.5756 6.23534L26.4244 6.85648L27.2855 7.40818L29.0895 8.08256C30.4033 8.30876 31.7653 7.96552 32.9761 7.46682C33.9571 7.06273 34.895 6.58723 35.841 6.1088L36.3287 5.84568L38 5L36.3287 6.65509L34.841 8.0517L33 9.59028L31.159 10.8164L29.6713 11.5285L28 12L27.8403 13.6713L27.6852 14.1582L26.9722 16.0293L25.6821 17.8958L23.9414 19.5671L21.9954 20.8356L20.9992 21.2971L20 21.6551L18 22.1582L16 22.4267L15.0008 22.4321L14.0039 22.3156L12.044 21.6443L10.2276 20.4483L8.73997 18.9715L7.77469 17.6289L7 16L5.33333 16.3318L3.89815 16.7292L3.10339 17.0316L1.59877 17.9383L1.02623 18.564L0.603395 19.3032L0.317901 20.1443L0.058642 22.0147L0.00462963 23.956L0 28L39 28L39 0L0 0z"/>
<path style="fill:#2b2c29; stroke:none;" d="M0 18L7 16L7.47145 17.6289L8.18519 18.9715C8.77505 19.7808 9.41289 20.5175 10.2284 21.1103L12.044 22.1273L13.0154 22.4468L15.0008 22.696L16 22.6559L18 22.3758C19.0162 22.1962 20.0093 21.9444 20.9992 21.6559L21.9954 21.2971L23.9414 20.2616L24.8519 19.5671L26.3966 17.8958L27.3966 16.0293L27.6821 15.1566L27.9383 13.6713L28 12L29.6713 11.7554L31.1597 11.2569L33.0062 10.2623L33.946 9.59105L35.679 8.0517L36.9136 6.65509L38 5L36.3287 5.53704L34.8395 6.18596L33.9552 6.59414L31.9992 7.33873L30.0394 7.61265L29.0895 7.48302C27.7589 7.18848 26.6729 6.30226 25.5756 5.55478L24.7145 4.97917L22.9105 4.04707L21.9606 3.74306L19.9961 3.51775L18 3.75232L17 4.00849L15.0008 4.76929L13.0147 5.87809L11.0895 7.32793C9.56511 8.58611 8.26751 10.0925 6.71528 11.3202C5.57869 12.2192 4.31447 12.9372 3.13426 13.7747L1.60957 15.1134L0.654321 16.3866L0 18z"/>
<path style="fill:#f8f8f5; stroke:none;" d="M12 11L13.6713 10.9846C14.4541 10.9602 15.2421 10.9246 16.0201 10.831L17.8441 10.581L21 10L20.4097 8.16049L19.9707 7.46296L18.6829 6.72685L16.9599 6.74537L16.0394 7.06173L14.3202 8.16204L13.0864 9.39043L12 11M14 19L15.6705 19.4159L17.1458 19.6019L18.0046 19.5934L19.8156 19.2191L21.4267 18.2785L22.6759 16.9321L23.1721 16.0509L24 14C22.6515 14.0048 21.3071 13.9925 19.9599 14.0586L18.054 14.3164L16.3179 15.0031L15.0293 16.1574L14.5903 16.9884L14 19z"/>
</svg>
